<mxfile host="Electron" modified="2024-05-23T00:41:11.881Z" agent="Mozilla/5.0 (X11; Linux x86_64) AppleWebKit/537.36 (KHTML, like Gecko) draw.io/24.4.0 Chrome/120.0.6099.109 Electron/28.1.0 Safari/537.36" etag="golBNxAz2Pe6QF-SoN_y" version="24.4.0" type="device" pages="9">
  <diagram name="1" id="3gOTRgeiZwrZgq-XQjOY">
    <mxGraphModel dx="994" dy="731" grid="1" gridSize="10" guides="1" tooltips="1" connect="1" arrows="1" fold="1" page="1" pageScale="1" pageWidth="1100" pageHeight="850" math="0" shadow="0">
      <root>
        <mxCell id="0" />
        <mxCell id="1" parent="0" />
        <mxCell id="XkhXt6ORZBwNm6yU_Rda-1" value="Scenario &lt;span style=&quot;background-color: rgb(255, 255, 102);&quot;&gt;scenario name&lt;/span&gt;" style="text;html=1;strokeColor=none;fillColor=none;align=center;verticalAlign=middle;whiteSpace=wrap;rounded=0;fontSize=36;" parent="1" vertex="1">
          <mxGeometry x="325" y="40" width="450" height="30" as="geometry" />
        </mxCell>
        <mxCell id="XkhXt6ORZBwNm6yU_Rda-5" value="Scenario description" style="text;html=1;strokeColor=none;fillColor=none;align=center;verticalAlign=middle;whiteSpace=wrap;rounded=0;fontSize=24;" parent="1" vertex="1">
          <mxGeometry x="365" y="110" width="320" height="30" as="geometry" />
        </mxCell>
        <mxCell id="XkhXt6ORZBwNm6yU_Rda-7" value="&lt;h1&gt;&lt;span style=&quot;background-color: rgb(255, 255, 102); font-weight: normal;&quot;&gt;&lt;font style=&quot;font-size: 16px;&quot;&gt;Describe scenario here&lt;/font&gt;&lt;/span&gt;&lt;/h1&gt;" style="text;html=1;strokeColor=none;fillColor=none;spacing=5;spacingTop=-20;whiteSpace=wrap;overflow=hidden;rounded=0;" parent="1" vertex="1">
          <mxGeometry x="200" y="310" width="660" height="470" as="geometry" />
        </mxCell>
        <mxCell id="nd33Kom6LJXQzviqK_45-1" value="" style="ellipse;whiteSpace=wrap;html=1;aspect=fixed;fillColor=#fff2cc;strokeColor=#d6b656;" parent="1" vertex="1">
          <mxGeometry x="290" y="30" width="50" height="50" as="geometry" />
        </mxCell>
        <mxCell id="nd33Kom6LJXQzviqK_45-2" value="" style="shape=flexArrow;endArrow=classic;html=1;rounded=0;endWidth=4;endSize=4.6;" parent="1" edge="1">
          <mxGeometry width="50" height="50" relative="1" as="geometry">
            <mxPoint x="314.83000000000004" y="70" as="sourcePoint" />
            <mxPoint x="314.83000000000004" y="40" as="targetPoint" />
          </mxGeometry>
        </mxCell>
        <mxCell id="HUAGcy9cVboC-eIIkm0R-6" style="edgeStyle=orthogonalEdgeStyle;rounded=0;orthogonalLoop=1;jettySize=auto;html=1;exitX=1;exitY=0.5;exitDx=0;exitDy=0;entryX=0;entryY=0.5;entryDx=0;entryDy=0;" parent="1" source="nd33Kom6LJXQzviqK_45-3" target="nd33Kom6LJXQzviqK_45-4" edge="1">
          <mxGeometry relative="1" as="geometry" />
        </mxCell>
        <mxCell id="nd33Kom6LJXQzviqK_45-3" value="1" style="ellipse;whiteSpace=wrap;html=1;aspect=fixed;fillColor=#dae8fc;strokeColor=#6c8ebf;" parent="1" vertex="1">
          <mxGeometry x="360" y="180" width="20" height="20" as="geometry" />
        </mxCell>
        <mxCell id="HUAGcy9cVboC-eIIkm0R-7" style="edgeStyle=orthogonalEdgeStyle;rounded=0;orthogonalLoop=1;jettySize=auto;html=1;exitX=1;exitY=0.5;exitDx=0;exitDy=0;entryX=0;entryY=0.5;entryDx=0;entryDy=0;" parent="1" source="nd33Kom6LJXQzviqK_45-4" target="nd33Kom6LJXQzviqK_45-5" edge="1">
          <mxGeometry relative="1" as="geometry" />
        </mxCell>
        <UserObject label="2" link="data:page/id,HOMqbK51VmRLCm19x1Nw" id="nd33Kom6LJXQzviqK_45-4">
          <mxCell style="ellipse;whiteSpace=wrap;html=1;aspect=fixed;fillColor=#d5e8d4;strokeColor=#82b366;" parent="1" vertex="1">
            <mxGeometry x="420" y="180" width="20" height="20" as="geometry" />
          </mxCell>
        </UserObject>
        <mxCell id="HUAGcy9cVboC-eIIkm0R-8" style="edgeStyle=orthogonalEdgeStyle;rounded=0;orthogonalLoop=1;jettySize=auto;html=1;entryX=0;entryY=0.5;entryDx=0;entryDy=0;" parent="1" source="nd33Kom6LJXQzviqK_45-5" target="nd33Kom6LJXQzviqK_45-6" edge="1">
          <mxGeometry relative="1" as="geometry" />
        </mxCell>
        <mxCell id="HUAGcy9cVboC-eIIkm0R-11" style="rounded=0;orthogonalLoop=1;jettySize=auto;html=1;exitX=1;exitY=1;exitDx=0;exitDy=0;entryX=0.5;entryY=0;entryDx=0;entryDy=0;" parent="1" source="nd33Kom6LJXQzviqK_45-5" target="HUAGcy9cVboC-eIIkm0R-3" edge="1">
          <mxGeometry relative="1" as="geometry" />
        </mxCell>
        <UserObject label="3" link="data:page/id,TSF0jeNE_sNj7Yi36eiF" id="nd33Kom6LJXQzviqK_45-5">
          <mxCell style="ellipse;whiteSpace=wrap;html=1;aspect=fixed;fillColor=#d5e8d4;strokeColor=#82b366;" parent="1" vertex="1">
            <mxGeometry x="480" y="180" width="20" height="20" as="geometry" />
          </mxCell>
        </UserObject>
        <mxCell id="HUAGcy9cVboC-eIIkm0R-9" style="edgeStyle=orthogonalEdgeStyle;rounded=0;orthogonalLoop=1;jettySize=auto;html=1;exitX=1;exitY=0.5;exitDx=0;exitDy=0;entryX=0;entryY=0.5;entryDx=0;entryDy=0;" parent="1" source="nd33Kom6LJXQzviqK_45-6" target="HUAGcy9cVboC-eIIkm0R-1" edge="1">
          <mxGeometry relative="1" as="geometry" />
        </mxCell>
        <mxCell id="HUAGcy9cVboC-eIIkm0R-13" style="rounded=0;orthogonalLoop=1;jettySize=auto;html=1;exitX=1;exitY=1;exitDx=0;exitDy=0;entryX=0.5;entryY=0;entryDx=0;entryDy=0;" parent="1" source="nd33Kom6LJXQzviqK_45-6" target="HUAGcy9cVboC-eIIkm0R-5" edge="1">
          <mxGeometry relative="1" as="geometry" />
        </mxCell>
        <UserObject label="4" link="data:page/id,M0PFeYh-DXWQnRFdKz0Y" id="nd33Kom6LJXQzviqK_45-6">
          <mxCell style="ellipse;whiteSpace=wrap;html=1;aspect=fixed;fillColor=#d5e8d4;strokeColor=#82b366;" parent="1" vertex="1">
            <mxGeometry x="540" y="180" width="20" height="20" as="geometry" />
          </mxCell>
        </UserObject>
        <mxCell id="HUAGcy9cVboC-eIIkm0R-10" style="edgeStyle=orthogonalEdgeStyle;rounded=0;orthogonalLoop=1;jettySize=auto;html=1;exitX=1;exitY=0.5;exitDx=0;exitDy=0;entryX=0;entryY=0.5;entryDx=0;entryDy=0;" parent="1" source="HUAGcy9cVboC-eIIkm0R-1" target="HUAGcy9cVboC-eIIkm0R-2" edge="1">
          <mxGeometry relative="1" as="geometry" />
        </mxCell>
        <UserObject label="5" link="data:page/id,Y5B1WkDeQFZ4UK6oZjhO" id="HUAGcy9cVboC-eIIkm0R-1">
          <mxCell style="ellipse;whiteSpace=wrap;html=1;aspect=fixed;fillColor=#d5e8d4;strokeColor=#82b366;" parent="1" vertex="1">
            <mxGeometry x="600" y="180" width="20" height="20" as="geometry" />
          </mxCell>
        </UserObject>
        <UserObject label="I" link="data:page/id,S1bIpW9pWT5yYSV2KL6C" id="HUAGcy9cVboC-eIIkm0R-2">
          <mxCell style="ellipse;whiteSpace=wrap;html=1;aspect=fixed;fillColor=#d5e8d4;strokeColor=#82b366;" parent="1" vertex="1">
            <mxGeometry x="660" y="180" width="20" height="20" as="geometry" />
          </mxCell>
        </UserObject>
        <mxCell id="HUAGcy9cVboC-eIIkm0R-12" style="rounded=0;orthogonalLoop=1;jettySize=auto;html=1;exitX=1;exitY=0;exitDx=0;exitDy=0;entryX=0;entryY=1;entryDx=0;entryDy=0;" parent="1" source="HUAGcy9cVboC-eIIkm0R-3" target="nd33Kom6LJXQzviqK_45-6" edge="1">
          <mxGeometry relative="1" as="geometry" />
        </mxCell>
        <UserObject label="S1" link="data:page/id,-JPnqK7kVruUAOabXjC0" id="HUAGcy9cVboC-eIIkm0R-3">
          <mxCell style="ellipse;whiteSpace=wrap;html=1;aspect=fixed;fillColor=#d5e8d4;strokeColor=#82b366;" parent="1" vertex="1">
            <mxGeometry x="510" y="220" width="20" height="20" as="geometry" />
          </mxCell>
        </UserObject>
        <mxCell id="HUAGcy9cVboC-eIIkm0R-16" style="edgeStyle=orthogonalEdgeStyle;rounded=0;orthogonalLoop=1;jettySize=auto;html=1;exitX=0.5;exitY=0;exitDx=0;exitDy=0;entryX=0.5;entryY=1;entryDx=0;entryDy=0;" parent="1" source="HUAGcy9cVboC-eIIkm0R-4" target="HUAGcy9cVboC-eIIkm0R-1" edge="1">
          <mxGeometry relative="1" as="geometry" />
        </mxCell>
        <UserObject label="S2" link="data:page/id,jAk-pJTvUaYThIdQby1w" id="HUAGcy9cVboC-eIIkm0R-4">
          <mxCell style="ellipse;whiteSpace=wrap;html=1;aspect=fixed;fillColor=#d5e8d4;strokeColor=#82b366;" parent="1" vertex="1">
            <mxGeometry x="600" y="220" width="20" height="20" as="geometry" />
          </mxCell>
        </UserObject>
        <mxCell id="HUAGcy9cVboC-eIIkm0R-14" style="rounded=0;orthogonalLoop=1;jettySize=auto;html=1;exitX=1;exitY=0;exitDx=0;exitDy=0;entryX=0;entryY=1;entryDx=0;entryDy=0;" parent="1" source="HUAGcy9cVboC-eIIkm0R-5" target="HUAGcy9cVboC-eIIkm0R-1" edge="1">
          <mxGeometry relative="1" as="geometry" />
        </mxCell>
        <mxCell id="HUAGcy9cVboC-eIIkm0R-15" style="edgeStyle=orthogonalEdgeStyle;rounded=0;orthogonalLoop=1;jettySize=auto;html=1;exitX=1;exitY=0.5;exitDx=0;exitDy=0;entryX=0;entryY=0.5;entryDx=0;entryDy=0;" parent="1" source="HUAGcy9cVboC-eIIkm0R-5" target="HUAGcy9cVboC-eIIkm0R-4" edge="1">
          <mxGeometry relative="1" as="geometry" />
        </mxCell>
        <UserObject label="T1" link="data:page/id,C11qGNApYIC4MWzOsMO5" id="HUAGcy9cVboC-eIIkm0R-5">
          <mxCell style="ellipse;whiteSpace=wrap;html=1;aspect=fixed;fillColor=#d5e8d4;strokeColor=#82b366;" parent="1" vertex="1">
            <mxGeometry x="558" y="220" width="20" height="20" as="geometry" />
          </mxCell>
        </UserObject>
        <UserObject label="" link="data:page/id,HOMqbK51VmRLCm19x1Nw" id="HUAGcy9cVboC-eIIkm0R-17">
          <mxCell style="ellipse;whiteSpace=wrap;html=1;aspect=fixed;fillColor=#d5e8d4;strokeColor=#82b366;" parent="1" vertex="1">
            <mxGeometry x="655" y="100" width="50" height="50" as="geometry" />
          </mxCell>
        </UserObject>
        <UserObject label="" link="data:page/id,HOMqbK51VmRLCm19x1Nw" id="HUAGcy9cVboC-eIIkm0R-18">
          <mxCell style="shape=flexArrow;endArrow=classic;html=1;rounded=0;endWidth=4;endSize=4.6;" parent="1" edge="1">
            <mxGeometry width="50" height="50" relative="1" as="geometry">
              <mxPoint x="666.9200000000001" y="127" as="sourcePoint" />
              <mxPoint x="697.09" y="127" as="targetPoint" />
            </mxGeometry>
          </mxCell>
        </UserObject>
        <mxCell id="HUAGcy9cVboC-eIIkm0R-19" value="" style="ellipse;whiteSpace=wrap;html=1;aspect=fixed;fillColor=#f5f5f5;strokeColor=#666666;fontColor=#333333;" parent="1" vertex="1">
          <mxGeometry x="340" y="100" width="50" height="50" as="geometry" />
        </mxCell>
        <mxCell id="HUAGcy9cVboC-eIIkm0R-20" value="" style="shape=flexArrow;endArrow=classic;html=1;rounded=0;endWidth=4;endSize=4.6;" parent="1" edge="1">
          <mxGeometry width="50" height="50" relative="1" as="geometry">
            <mxPoint x="379.09000000000015" y="127" as="sourcePoint" />
            <mxPoint x="348.9200000000002" y="127" as="targetPoint" />
          </mxGeometry>
        </mxCell>
        <mxCell id="GRgv18fu1dQlrhrjSypP-1" value="" style="ellipse;whiteSpace=wrap;html=1;aspect=fixed;" vertex="1" parent="1">
          <mxGeometry x="1095" y="240" width="4" height="4" as="geometry" />
        </mxCell>
        <mxCell id="264vZd45A1SeD3i-MRqe-1" value="" style="ellipse;whiteSpace=wrap;html=1;aspect=fixed;" vertex="1" parent="1">
          <mxGeometry x="80" y="230" width="4" height="4" as="geometry" />
        </mxCell>
      </root>
    </mxGraphModel>
  </diagram>
  <diagram name="2" id="HOMqbK51VmRLCm19x1Nw">
    <mxGraphModel dx="994" dy="731" grid="1" gridSize="10" guides="1" tooltips="1" connect="1" arrows="1" fold="1" page="1" pageScale="1" pageWidth="1100" pageHeight="850" math="0" shadow="0">
      <root>
        <mxCell id="rwyhTBoabJYi16Hv4Wrg-0" />
        <mxCell id="rwyhTBoabJYi16Hv4Wrg-1" parent="rwyhTBoabJYi16Hv4Wrg-0" />
        <mxCell id="pRPTIwaN4fcdAIS-kO91-0" value="" style="group" parent="rwyhTBoabJYi16Hv4Wrg-1" vertex="1" connectable="0">
          <mxGeometry x="750" y="210" width="340" height="600" as="geometry" />
        </mxCell>
        <mxCell id="HcPSs8RHWuQIDoJ-hTFC-0" value="" style="rounded=0;whiteSpace=wrap;html=1;dashed=1;" parent="pRPTIwaN4fcdAIS-kO91-0" vertex="1">
          <mxGeometry y="70" width="250" height="570" as="geometry" />
        </mxCell>
        <mxCell id="HcPSs8RHWuQIDoJ-hTFC-1" value="&lt;b&gt;Output&lt;/b&gt;" style="text;html=1;strokeColor=none;fillColor=none;align=left;verticalAlign=middle;whiteSpace=wrap;rounded=0;" parent="pRPTIwaN4fcdAIS-kO91-0" vertex="1">
          <mxGeometry y="40" width="60" height="30" as="geometry" />
        </mxCell>
        <mxCell id="HcPSs8RHWuQIDoJ-hTFC-2" value="out" style="ellipse;whiteSpace=wrap;html=1;" parent="pRPTIwaN4fcdAIS-kO91-0" vertex="1">
          <mxGeometry x="290" y="140" width="50" height="430" as="geometry" />
        </mxCell>
        <mxCell id="iTZLuwhZmiXLGnBnyku0-1" value="Output" style="text;html=1;strokeColor=none;fillColor=none;align=center;verticalAlign=middle;whiteSpace=wrap;rounded=0;fontSize=24;" parent="rwyhTBoabJYi16Hv4Wrg-1" vertex="1">
          <mxGeometry x="365" y="110" width="320" height="30" as="geometry" />
        </mxCell>
        <mxCell id="iTZLuwhZmiXLGnBnyku0-4" style="edgeStyle=orthogonalEdgeStyle;rounded=0;orthogonalLoop=1;jettySize=auto;html=1;exitX=1;exitY=0.5;exitDx=0;exitDy=0;entryX=0;entryY=0.5;entryDx=0;entryDy=0;" parent="rwyhTBoabJYi16Hv4Wrg-1" source="iTZLuwhZmiXLGnBnyku0-5" target="iTZLuwhZmiXLGnBnyku0-7" edge="1">
          <mxGeometry relative="1" as="geometry" />
        </mxCell>
        <UserObject label="1" link="data:page/id,3gOTRgeiZwrZgq-XQjOY" id="iTZLuwhZmiXLGnBnyku0-5">
          <mxCell style="ellipse;whiteSpace=wrap;html=1;aspect=fixed;fillColor=#d5e8d4;strokeColor=#82b366;" parent="rwyhTBoabJYi16Hv4Wrg-1" vertex="1">
            <mxGeometry x="360" y="180" width="20" height="20" as="geometry" />
          </mxCell>
        </UserObject>
        <mxCell id="iTZLuwhZmiXLGnBnyku0-6" style="edgeStyle=orthogonalEdgeStyle;rounded=0;orthogonalLoop=1;jettySize=auto;html=1;exitX=1;exitY=0.5;exitDx=0;exitDy=0;entryX=0;entryY=0.5;entryDx=0;entryDy=0;" parent="rwyhTBoabJYi16Hv4Wrg-1" source="iTZLuwhZmiXLGnBnyku0-7" target="iTZLuwhZmiXLGnBnyku0-10" edge="1">
          <mxGeometry relative="1" as="geometry" />
        </mxCell>
        <UserObject label="2" id="iTZLuwhZmiXLGnBnyku0-7">
          <mxCell style="ellipse;whiteSpace=wrap;html=1;aspect=fixed;fillColor=#dae8fc;strokeColor=#6c8ebf;" parent="rwyhTBoabJYi16Hv4Wrg-1" vertex="1">
            <mxGeometry x="420" y="180" width="20" height="20" as="geometry" />
          </mxCell>
        </UserObject>
        <mxCell id="iTZLuwhZmiXLGnBnyku0-8" style="edgeStyle=orthogonalEdgeStyle;rounded=0;orthogonalLoop=1;jettySize=auto;html=1;entryX=0;entryY=0.5;entryDx=0;entryDy=0;" parent="rwyhTBoabJYi16Hv4Wrg-1" source="iTZLuwhZmiXLGnBnyku0-10" target="iTZLuwhZmiXLGnBnyku0-13" edge="1">
          <mxGeometry relative="1" as="geometry" />
        </mxCell>
        <mxCell id="iTZLuwhZmiXLGnBnyku0-9" style="rounded=0;orthogonalLoop=1;jettySize=auto;html=1;exitX=1;exitY=1;exitDx=0;exitDy=0;entryX=0.5;entryY=0;entryDx=0;entryDy=0;" parent="rwyhTBoabJYi16Hv4Wrg-1" source="iTZLuwhZmiXLGnBnyku0-10" target="iTZLuwhZmiXLGnBnyku0-18" edge="1">
          <mxGeometry relative="1" as="geometry" />
        </mxCell>
        <UserObject label="3" link="data:page/id,TSF0jeNE_sNj7Yi36eiF" id="iTZLuwhZmiXLGnBnyku0-10">
          <mxCell style="ellipse;whiteSpace=wrap;html=1;aspect=fixed;fillColor=#d5e8d4;strokeColor=#82b366;" parent="rwyhTBoabJYi16Hv4Wrg-1" vertex="1">
            <mxGeometry x="480" y="180" width="20" height="20" as="geometry" />
          </mxCell>
        </UserObject>
        <mxCell id="iTZLuwhZmiXLGnBnyku0-11" style="edgeStyle=orthogonalEdgeStyle;rounded=0;orthogonalLoop=1;jettySize=auto;html=1;exitX=1;exitY=0.5;exitDx=0;exitDy=0;entryX=0;entryY=0.5;entryDx=0;entryDy=0;" parent="rwyhTBoabJYi16Hv4Wrg-1" source="iTZLuwhZmiXLGnBnyku0-13" target="iTZLuwhZmiXLGnBnyku0-15" edge="1">
          <mxGeometry relative="1" as="geometry" />
        </mxCell>
        <mxCell id="iTZLuwhZmiXLGnBnyku0-12" style="rounded=0;orthogonalLoop=1;jettySize=auto;html=1;exitX=1;exitY=1;exitDx=0;exitDy=0;entryX=0.5;entryY=0;entryDx=0;entryDy=0;" parent="rwyhTBoabJYi16Hv4Wrg-1" source="iTZLuwhZmiXLGnBnyku0-13" target="iTZLuwhZmiXLGnBnyku0-23" edge="1">
          <mxGeometry relative="1" as="geometry" />
        </mxCell>
        <UserObject label="4" link="data:page/id,M0PFeYh-DXWQnRFdKz0Y" id="iTZLuwhZmiXLGnBnyku0-13">
          <mxCell style="ellipse;whiteSpace=wrap;html=1;aspect=fixed;fillColor=#d5e8d4;strokeColor=#82b366;" parent="rwyhTBoabJYi16Hv4Wrg-1" vertex="1">
            <mxGeometry x="540" y="180" width="20" height="20" as="geometry" />
          </mxCell>
        </UserObject>
        <mxCell id="iTZLuwhZmiXLGnBnyku0-14" style="edgeStyle=orthogonalEdgeStyle;rounded=0;orthogonalLoop=1;jettySize=auto;html=1;exitX=1;exitY=0.5;exitDx=0;exitDy=0;entryX=0;entryY=0.5;entryDx=0;entryDy=0;" parent="rwyhTBoabJYi16Hv4Wrg-1" source="iTZLuwhZmiXLGnBnyku0-15" target="iTZLuwhZmiXLGnBnyku0-16" edge="1">
          <mxGeometry relative="1" as="geometry" />
        </mxCell>
        <UserObject label="5" link="data:page/id,Y5B1WkDeQFZ4UK6oZjhO" id="iTZLuwhZmiXLGnBnyku0-15">
          <mxCell style="ellipse;whiteSpace=wrap;html=1;aspect=fixed;fillColor=#d5e8d4;strokeColor=#82b366;" parent="rwyhTBoabJYi16Hv4Wrg-1" vertex="1">
            <mxGeometry x="600" y="180" width="20" height="20" as="geometry" />
          </mxCell>
        </UserObject>
        <UserObject label="I" link="data:page/id,S1bIpW9pWT5yYSV2KL6C" id="iTZLuwhZmiXLGnBnyku0-16">
          <mxCell style="ellipse;whiteSpace=wrap;html=1;aspect=fixed;fillColor=#d5e8d4;strokeColor=#82b366;" parent="rwyhTBoabJYi16Hv4Wrg-1" vertex="1">
            <mxGeometry x="660" y="180" width="20" height="20" as="geometry" />
          </mxCell>
        </UserObject>
        <mxCell id="iTZLuwhZmiXLGnBnyku0-17" style="rounded=0;orthogonalLoop=1;jettySize=auto;html=1;exitX=1;exitY=0;exitDx=0;exitDy=0;entryX=0;entryY=1;entryDx=0;entryDy=0;" parent="rwyhTBoabJYi16Hv4Wrg-1" source="iTZLuwhZmiXLGnBnyku0-18" target="iTZLuwhZmiXLGnBnyku0-13" edge="1">
          <mxGeometry relative="1" as="geometry" />
        </mxCell>
        <UserObject label="S1" link="data:page/id,-JPnqK7kVruUAOabXjC0" id="iTZLuwhZmiXLGnBnyku0-18">
          <mxCell style="ellipse;whiteSpace=wrap;html=1;aspect=fixed;fillColor=#d5e8d4;strokeColor=#82b366;" parent="rwyhTBoabJYi16Hv4Wrg-1" vertex="1">
            <mxGeometry x="510" y="220" width="20" height="20" as="geometry" />
          </mxCell>
        </UserObject>
        <mxCell id="iTZLuwhZmiXLGnBnyku0-19" style="edgeStyle=orthogonalEdgeStyle;rounded=0;orthogonalLoop=1;jettySize=auto;html=1;exitX=0.5;exitY=0;exitDx=0;exitDy=0;entryX=0.5;entryY=1;entryDx=0;entryDy=0;" parent="rwyhTBoabJYi16Hv4Wrg-1" source="iTZLuwhZmiXLGnBnyku0-20" target="iTZLuwhZmiXLGnBnyku0-15" edge="1">
          <mxGeometry relative="1" as="geometry" />
        </mxCell>
        <UserObject label="S2" link="data:page/id,jAk-pJTvUaYThIdQby1w" id="iTZLuwhZmiXLGnBnyku0-20">
          <mxCell style="ellipse;whiteSpace=wrap;html=1;aspect=fixed;fillColor=#d5e8d4;strokeColor=#82b366;" parent="rwyhTBoabJYi16Hv4Wrg-1" vertex="1">
            <mxGeometry x="600" y="220" width="20" height="20" as="geometry" />
          </mxCell>
        </UserObject>
        <mxCell id="iTZLuwhZmiXLGnBnyku0-21" style="rounded=0;orthogonalLoop=1;jettySize=auto;html=1;exitX=1;exitY=0;exitDx=0;exitDy=0;entryX=0;entryY=1;entryDx=0;entryDy=0;" parent="rwyhTBoabJYi16Hv4Wrg-1" source="iTZLuwhZmiXLGnBnyku0-23" target="iTZLuwhZmiXLGnBnyku0-15" edge="1">
          <mxGeometry relative="1" as="geometry" />
        </mxCell>
        <mxCell id="iTZLuwhZmiXLGnBnyku0-22" style="edgeStyle=orthogonalEdgeStyle;rounded=0;orthogonalLoop=1;jettySize=auto;html=1;exitX=1;exitY=0.5;exitDx=0;exitDy=0;entryX=0;entryY=0.5;entryDx=0;entryDy=0;" parent="rwyhTBoabJYi16Hv4Wrg-1" source="iTZLuwhZmiXLGnBnyku0-23" target="iTZLuwhZmiXLGnBnyku0-20" edge="1">
          <mxGeometry relative="1" as="geometry" />
        </mxCell>
        <UserObject label="T1" link="data:page/id,C11qGNApYIC4MWzOsMO5" id="iTZLuwhZmiXLGnBnyku0-23">
          <mxCell style="ellipse;whiteSpace=wrap;html=1;aspect=fixed;fillColor=#d5e8d4;strokeColor=#82b366;" parent="rwyhTBoabJYi16Hv4Wrg-1" vertex="1">
            <mxGeometry x="558" y="220" width="20" height="20" as="geometry" />
          </mxCell>
        </UserObject>
        <UserObject label="" link="data:page/id,TSF0jeNE_sNj7Yi36eiF" id="iTZLuwhZmiXLGnBnyku0-24">
          <mxCell style="ellipse;whiteSpace=wrap;html=1;aspect=fixed;fillColor=#d5e8d4;strokeColor=#82b366;" parent="rwyhTBoabJYi16Hv4Wrg-1" vertex="1">
            <mxGeometry x="655" y="100" width="50" height="50" as="geometry" />
          </mxCell>
        </UserObject>
        <UserObject label="" link="data:page/id,TSF0jeNE_sNj7Yi36eiF" id="iTZLuwhZmiXLGnBnyku0-25">
          <mxCell style="shape=flexArrow;endArrow=classic;html=1;rounded=0;endWidth=4;endSize=4.6;" parent="rwyhTBoabJYi16Hv4Wrg-1" edge="1">
            <mxGeometry width="50" height="50" relative="1" as="geometry">
              <mxPoint x="666.9200000000001" y="127" as="sourcePoint" />
              <mxPoint x="697.09" y="127" as="targetPoint" />
            </mxGeometry>
          </mxCell>
        </UserObject>
        <UserObject label="" link="data:page/id,3gOTRgeiZwrZgq-XQjOY" id="iTZLuwhZmiXLGnBnyku0-26">
          <mxCell style="ellipse;whiteSpace=wrap;html=1;aspect=fixed;fillColor=#d5e8d4;strokeColor=#82b366;" parent="rwyhTBoabJYi16Hv4Wrg-1" vertex="1">
            <mxGeometry x="340" y="100" width="50" height="50" as="geometry" />
          </mxCell>
        </UserObject>
        <UserObject label="" link="data:page/id,3gOTRgeiZwrZgq-XQjOY" id="iTZLuwhZmiXLGnBnyku0-27">
          <mxCell style="shape=flexArrow;endArrow=classic;html=1;rounded=0;endWidth=4;endSize=4.6;" parent="rwyhTBoabJYi16Hv4Wrg-1" edge="1">
            <mxGeometry width="50" height="50" relative="1" as="geometry">
              <mxPoint x="379.09000000000015" y="127" as="sourcePoint" />
              <mxPoint x="348.9200000000002" y="127" as="targetPoint" />
            </mxGeometry>
          </mxCell>
        </UserObject>
        <mxCell id="Bd3I5N45W_pkvHIKRj13-0" value="" style="group" parent="rwyhTBoabJYi16Hv4Wrg-1" vertex="1" connectable="0">
          <mxGeometry x="80" y="250" width="250" height="600" as="geometry" />
        </mxCell>
        <mxCell id="Bd3I5N45W_pkvHIKRj13-1" value="" style="rounded=0;whiteSpace=wrap;html=1;dashed=1;" parent="Bd3I5N45W_pkvHIKRj13-0" vertex="1">
          <mxGeometry y="30" width="250" height="570" as="geometry" />
        </mxCell>
        <mxCell id="Bd3I5N45W_pkvHIKRj13-2" value="&lt;b&gt;Input&lt;/b&gt;" style="text;html=1;strokeColor=none;fillColor=none;align=left;verticalAlign=middle;whiteSpace=wrap;rounded=0;" parent="Bd3I5N45W_pkvHIKRj13-0" vertex="1">
          <mxGeometry width="60" height="30" as="geometry" />
        </mxCell>
        <mxCell id="2fuFcUQy5LkpnFMVbLfs-0" value="" style="group" parent="rwyhTBoabJYi16Hv4Wrg-1" vertex="1" connectable="0">
          <mxGeometry x="346" y="250" width="390" height="600" as="geometry" />
        </mxCell>
        <mxCell id="2fuFcUQy5LkpnFMVbLfs-1" value="" style="rounded=0;whiteSpace=wrap;html=1;dashed=1;" parent="2fuFcUQy5LkpnFMVbLfs-0" vertex="1">
          <mxGeometry y="30" width="390" height="570" as="geometry" />
        </mxCell>
        <mxCell id="2fuFcUQy5LkpnFMVbLfs-2" value="&lt;b&gt;Body&lt;/b&gt;" style="text;html=1;strokeColor=none;fillColor=none;align=left;verticalAlign=middle;whiteSpace=wrap;rounded=0;" parent="2fuFcUQy5LkpnFMVbLfs-0" vertex="1">
          <mxGeometry width="60" height="30" as="geometry" />
        </mxCell>
      </root>
    </mxGraphModel>
  </diagram>
  <diagram name="3" id="TSF0jeNE_sNj7Yi36eiF">
    <mxGraphModel dx="994" dy="731" grid="1" gridSize="10" guides="1" tooltips="1" connect="1" arrows="1" fold="1" page="1" pageScale="1" pageWidth="1100" pageHeight="850" math="0" shadow="0">
      <root>
        <mxCell id="F9mEu_ceBOvW8sl32f-Z-0" />
        <mxCell id="F9mEu_ceBOvW8sl32f-Z-1" parent="F9mEu_ceBOvW8sl32f-Z-0" />
        <mxCell id="f_0iYCS7FFkeYnlUpW0v-0" value="" style="group" parent="F9mEu_ceBOvW8sl32f-Z-1" vertex="1" connectable="0">
          <mxGeometry x="750" y="210" width="340" height="600" as="geometry" />
        </mxCell>
        <mxCell id="f_0iYCS7FFkeYnlUpW0v-1" value="" style="rounded=0;whiteSpace=wrap;html=1;dashed=1;" parent="f_0iYCS7FFkeYnlUpW0v-0" vertex="1">
          <mxGeometry y="70" width="250" height="570" as="geometry" />
        </mxCell>
        <mxCell id="f_0iYCS7FFkeYnlUpW0v-2" value="&lt;b&gt;Output&lt;/b&gt;" style="text;html=1;strokeColor=none;fillColor=none;align=left;verticalAlign=middle;whiteSpace=wrap;rounded=0;" parent="f_0iYCS7FFkeYnlUpW0v-0" vertex="1">
          <mxGeometry y="40" width="60" height="30" as="geometry" />
        </mxCell>
        <mxCell id="f_0iYCS7FFkeYnlUpW0v-3" value="out" style="ellipse;whiteSpace=wrap;html=1;" parent="f_0iYCS7FFkeYnlUpW0v-0" vertex="1">
          <mxGeometry x="290" y="140" width="50" height="430" as="geometry" />
        </mxCell>
        <mxCell id="f_0iYCS7FFkeYnlUpW0v-5" value="Input" style="text;html=1;strokeColor=none;fillColor=none;align=center;verticalAlign=middle;whiteSpace=wrap;rounded=0;fontSize=24;" parent="F9mEu_ceBOvW8sl32f-Z-1" vertex="1">
          <mxGeometry x="365" y="110" width="320" height="30" as="geometry" />
        </mxCell>
        <mxCell id="f_0iYCS7FFkeYnlUpW0v-8" style="edgeStyle=orthogonalEdgeStyle;rounded=0;orthogonalLoop=1;jettySize=auto;html=1;exitX=1;exitY=0.5;exitDx=0;exitDy=0;entryX=0;entryY=0.5;entryDx=0;entryDy=0;" parent="F9mEu_ceBOvW8sl32f-Z-1" source="f_0iYCS7FFkeYnlUpW0v-9" target="f_0iYCS7FFkeYnlUpW0v-11" edge="1">
          <mxGeometry relative="1" as="geometry" />
        </mxCell>
        <UserObject label="1" link="data:page/id,3gOTRgeiZwrZgq-XQjOY" id="f_0iYCS7FFkeYnlUpW0v-9">
          <mxCell style="ellipse;whiteSpace=wrap;html=1;aspect=fixed;fillColor=#d5e8d4;strokeColor=#82b366;" parent="F9mEu_ceBOvW8sl32f-Z-1" vertex="1">
            <mxGeometry x="360" y="180" width="20" height="20" as="geometry" />
          </mxCell>
        </UserObject>
        <mxCell id="f_0iYCS7FFkeYnlUpW0v-10" style="edgeStyle=orthogonalEdgeStyle;rounded=0;orthogonalLoop=1;jettySize=auto;html=1;exitX=1;exitY=0.5;exitDx=0;exitDy=0;entryX=0;entryY=0.5;entryDx=0;entryDy=0;" parent="F9mEu_ceBOvW8sl32f-Z-1" source="f_0iYCS7FFkeYnlUpW0v-11" target="f_0iYCS7FFkeYnlUpW0v-14" edge="1">
          <mxGeometry relative="1" as="geometry" />
        </mxCell>
        <UserObject label="2" link="data:page/id,HOMqbK51VmRLCm19x1Nw" id="f_0iYCS7FFkeYnlUpW0v-11">
          <mxCell style="ellipse;whiteSpace=wrap;html=1;aspect=fixed;fillColor=#d5e8d4;strokeColor=#82b366;" parent="F9mEu_ceBOvW8sl32f-Z-1" vertex="1">
            <mxGeometry x="420" y="180" width="20" height="20" as="geometry" />
          </mxCell>
        </UserObject>
        <mxCell id="f_0iYCS7FFkeYnlUpW0v-12" style="edgeStyle=orthogonalEdgeStyle;rounded=0;orthogonalLoop=1;jettySize=auto;html=1;entryX=0;entryY=0.5;entryDx=0;entryDy=0;" parent="F9mEu_ceBOvW8sl32f-Z-1" source="f_0iYCS7FFkeYnlUpW0v-14" target="f_0iYCS7FFkeYnlUpW0v-17" edge="1">
          <mxGeometry relative="1" as="geometry" />
        </mxCell>
        <mxCell id="f_0iYCS7FFkeYnlUpW0v-13" style="rounded=0;orthogonalLoop=1;jettySize=auto;html=1;exitX=1;exitY=1;exitDx=0;exitDy=0;entryX=0.5;entryY=0;entryDx=0;entryDy=0;" parent="F9mEu_ceBOvW8sl32f-Z-1" source="f_0iYCS7FFkeYnlUpW0v-14" target="f_0iYCS7FFkeYnlUpW0v-22" edge="1">
          <mxGeometry relative="1" as="geometry" />
        </mxCell>
        <UserObject label="3" id="f_0iYCS7FFkeYnlUpW0v-14">
          <mxCell style="ellipse;whiteSpace=wrap;html=1;aspect=fixed;fillColor=#dae8fc;strokeColor=#6c8ebf;" parent="F9mEu_ceBOvW8sl32f-Z-1" vertex="1">
            <mxGeometry x="480" y="180" width="20" height="20" as="geometry" />
          </mxCell>
        </UserObject>
        <mxCell id="f_0iYCS7FFkeYnlUpW0v-15" style="edgeStyle=orthogonalEdgeStyle;rounded=0;orthogonalLoop=1;jettySize=auto;html=1;exitX=1;exitY=0.5;exitDx=0;exitDy=0;entryX=0;entryY=0.5;entryDx=0;entryDy=0;" parent="F9mEu_ceBOvW8sl32f-Z-1" source="f_0iYCS7FFkeYnlUpW0v-17" target="f_0iYCS7FFkeYnlUpW0v-19" edge="1">
          <mxGeometry relative="1" as="geometry" />
        </mxCell>
        <mxCell id="f_0iYCS7FFkeYnlUpW0v-16" style="rounded=0;orthogonalLoop=1;jettySize=auto;html=1;exitX=1;exitY=1;exitDx=0;exitDy=0;entryX=0.5;entryY=0;entryDx=0;entryDy=0;" parent="F9mEu_ceBOvW8sl32f-Z-1" source="f_0iYCS7FFkeYnlUpW0v-17" target="f_0iYCS7FFkeYnlUpW0v-27" edge="1">
          <mxGeometry relative="1" as="geometry" />
        </mxCell>
        <UserObject label="4" link="data:page/id,M0PFeYh-DXWQnRFdKz0Y" id="f_0iYCS7FFkeYnlUpW0v-17">
          <mxCell style="ellipse;whiteSpace=wrap;html=1;aspect=fixed;fillColor=#d5e8d4;strokeColor=#82b366;" parent="F9mEu_ceBOvW8sl32f-Z-1" vertex="1">
            <mxGeometry x="540" y="180" width="20" height="20" as="geometry" />
          </mxCell>
        </UserObject>
        <mxCell id="f_0iYCS7FFkeYnlUpW0v-18" style="edgeStyle=orthogonalEdgeStyle;rounded=0;orthogonalLoop=1;jettySize=auto;html=1;exitX=1;exitY=0.5;exitDx=0;exitDy=0;entryX=0;entryY=0.5;entryDx=0;entryDy=0;" parent="F9mEu_ceBOvW8sl32f-Z-1" source="f_0iYCS7FFkeYnlUpW0v-19" target="f_0iYCS7FFkeYnlUpW0v-20" edge="1">
          <mxGeometry relative="1" as="geometry" />
        </mxCell>
        <UserObject label="5" link="data:page/id,Y5B1WkDeQFZ4UK6oZjhO" id="f_0iYCS7FFkeYnlUpW0v-19">
          <mxCell style="ellipse;whiteSpace=wrap;html=1;aspect=fixed;fillColor=#d5e8d4;strokeColor=#82b366;" parent="F9mEu_ceBOvW8sl32f-Z-1" vertex="1">
            <mxGeometry x="600" y="180" width="20" height="20" as="geometry" />
          </mxCell>
        </UserObject>
        <UserObject label="I" link="data:page/id,S1bIpW9pWT5yYSV2KL6C" id="f_0iYCS7FFkeYnlUpW0v-20">
          <mxCell style="ellipse;whiteSpace=wrap;html=1;aspect=fixed;fillColor=#d5e8d4;strokeColor=#82b366;" parent="F9mEu_ceBOvW8sl32f-Z-1" vertex="1">
            <mxGeometry x="660" y="180" width="20" height="20" as="geometry" />
          </mxCell>
        </UserObject>
        <mxCell id="f_0iYCS7FFkeYnlUpW0v-21" style="rounded=0;orthogonalLoop=1;jettySize=auto;html=1;exitX=1;exitY=0;exitDx=0;exitDy=0;entryX=0;entryY=1;entryDx=0;entryDy=0;" parent="F9mEu_ceBOvW8sl32f-Z-1" source="f_0iYCS7FFkeYnlUpW0v-22" target="f_0iYCS7FFkeYnlUpW0v-17" edge="1">
          <mxGeometry relative="1" as="geometry" />
        </mxCell>
        <UserObject label="S1" link="data:page/id,-JPnqK7kVruUAOabXjC0" id="f_0iYCS7FFkeYnlUpW0v-22">
          <mxCell style="ellipse;whiteSpace=wrap;html=1;aspect=fixed;fillColor=#d5e8d4;strokeColor=#82b366;" parent="F9mEu_ceBOvW8sl32f-Z-1" vertex="1">
            <mxGeometry x="510" y="220" width="20" height="20" as="geometry" />
          </mxCell>
        </UserObject>
        <mxCell id="f_0iYCS7FFkeYnlUpW0v-23" style="edgeStyle=orthogonalEdgeStyle;rounded=0;orthogonalLoop=1;jettySize=auto;html=1;exitX=0.5;exitY=0;exitDx=0;exitDy=0;entryX=0.5;entryY=1;entryDx=0;entryDy=0;" parent="F9mEu_ceBOvW8sl32f-Z-1" source="f_0iYCS7FFkeYnlUpW0v-24" target="f_0iYCS7FFkeYnlUpW0v-19" edge="1">
          <mxGeometry relative="1" as="geometry" />
        </mxCell>
        <UserObject label="S2" link="data:page/id,jAk-pJTvUaYThIdQby1w" id="f_0iYCS7FFkeYnlUpW0v-24">
          <mxCell style="ellipse;whiteSpace=wrap;html=1;aspect=fixed;fillColor=#d5e8d4;strokeColor=#82b366;" parent="F9mEu_ceBOvW8sl32f-Z-1" vertex="1">
            <mxGeometry x="600" y="220" width="20" height="20" as="geometry" />
          </mxCell>
        </UserObject>
        <mxCell id="f_0iYCS7FFkeYnlUpW0v-25" style="rounded=0;orthogonalLoop=1;jettySize=auto;html=1;exitX=1;exitY=0;exitDx=0;exitDy=0;entryX=0;entryY=1;entryDx=0;entryDy=0;" parent="F9mEu_ceBOvW8sl32f-Z-1" source="f_0iYCS7FFkeYnlUpW0v-27" target="f_0iYCS7FFkeYnlUpW0v-19" edge="1">
          <mxGeometry relative="1" as="geometry" />
        </mxCell>
        <mxCell id="f_0iYCS7FFkeYnlUpW0v-26" style="edgeStyle=orthogonalEdgeStyle;rounded=0;orthogonalLoop=1;jettySize=auto;html=1;exitX=1;exitY=0.5;exitDx=0;exitDy=0;entryX=0;entryY=0.5;entryDx=0;entryDy=0;" parent="F9mEu_ceBOvW8sl32f-Z-1" source="f_0iYCS7FFkeYnlUpW0v-27" target="f_0iYCS7FFkeYnlUpW0v-24" edge="1">
          <mxGeometry relative="1" as="geometry" />
        </mxCell>
        <UserObject label="T1" link="data:page/id,C11qGNApYIC4MWzOsMO5" id="f_0iYCS7FFkeYnlUpW0v-27">
          <mxCell style="ellipse;whiteSpace=wrap;html=1;aspect=fixed;fillColor=#d5e8d4;strokeColor=#82b366;" parent="F9mEu_ceBOvW8sl32f-Z-1" vertex="1">
            <mxGeometry x="558" y="220" width="20" height="20" as="geometry" />
          </mxCell>
        </UserObject>
        <UserObject label="" link="data:page/id,M0PFeYh-DXWQnRFdKz0Y" id="f_0iYCS7FFkeYnlUpW0v-28">
          <mxCell style="ellipse;whiteSpace=wrap;html=1;aspect=fixed;fillColor=#d5e8d4;strokeColor=#82b366;" parent="F9mEu_ceBOvW8sl32f-Z-1" vertex="1">
            <mxGeometry x="655" y="100" width="50" height="50" as="geometry" />
          </mxCell>
        </UserObject>
        <UserObject label="" link="data:page/id,M0PFeYh-DXWQnRFdKz0Y" id="f_0iYCS7FFkeYnlUpW0v-29">
          <mxCell style="shape=flexArrow;endArrow=classic;html=1;rounded=0;endWidth=4;endSize=4.6;" parent="F9mEu_ceBOvW8sl32f-Z-1" edge="1">
            <mxGeometry width="50" height="50" relative="1" as="geometry">
              <mxPoint x="666.9200000000001" y="127" as="sourcePoint" />
              <mxPoint x="697.09" y="127" as="targetPoint" />
            </mxGeometry>
          </mxCell>
        </UserObject>
        <UserObject label="" link="data:page/id,HOMqbK51VmRLCm19x1Nw" id="f_0iYCS7FFkeYnlUpW0v-30">
          <mxCell style="ellipse;whiteSpace=wrap;html=1;aspect=fixed;fillColor=#d5e8d4;strokeColor=#82b366;" parent="F9mEu_ceBOvW8sl32f-Z-1" vertex="1">
            <mxGeometry x="340" y="100" width="50" height="50" as="geometry" />
          </mxCell>
        </UserObject>
        <UserObject label="" link="data:page/id,HOMqbK51VmRLCm19x1Nw" id="f_0iYCS7FFkeYnlUpW0v-31">
          <mxCell style="shape=flexArrow;endArrow=classic;html=1;rounded=0;endWidth=4;endSize=4.6;" parent="F9mEu_ceBOvW8sl32f-Z-1" edge="1">
            <mxGeometry width="50" height="50" relative="1" as="geometry">
              <mxPoint x="379.09000000000015" y="127" as="sourcePoint" />
              <mxPoint x="348.9200000000002" y="127" as="targetPoint" />
            </mxGeometry>
          </mxCell>
        </UserObject>
        <mxCell id="f_0iYCS7FFkeYnlUpW0v-32" value="" style="group" parent="F9mEu_ceBOvW8sl32f-Z-1" vertex="1" connectable="0">
          <mxGeometry x="80" y="250" width="250" height="600" as="geometry" />
        </mxCell>
        <mxCell id="f_0iYCS7FFkeYnlUpW0v-33" value="" style="rounded=0;whiteSpace=wrap;html=1;dashed=1;" parent="f_0iYCS7FFkeYnlUpW0v-32" vertex="1">
          <mxGeometry y="30" width="250" height="570" as="geometry" />
        </mxCell>
        <mxCell id="f_0iYCS7FFkeYnlUpW0v-34" value="&lt;b&gt;Input&lt;/b&gt;" style="text;html=1;strokeColor=none;fillColor=none;align=left;verticalAlign=middle;whiteSpace=wrap;rounded=0;" parent="f_0iYCS7FFkeYnlUpW0v-32" vertex="1">
          <mxGeometry width="60" height="30" as="geometry" />
        </mxCell>
        <mxCell id="f_0iYCS7FFkeYnlUpW0v-35" value="" style="group" parent="F9mEu_ceBOvW8sl32f-Z-1" vertex="1" connectable="0">
          <mxGeometry x="346" y="250" width="390" height="600" as="geometry" />
        </mxCell>
        <mxCell id="f_0iYCS7FFkeYnlUpW0v-36" value="" style="rounded=0;whiteSpace=wrap;html=1;dashed=1;" parent="f_0iYCS7FFkeYnlUpW0v-35" vertex="1">
          <mxGeometry y="30" width="390" height="570" as="geometry" />
        </mxCell>
        <mxCell id="f_0iYCS7FFkeYnlUpW0v-37" value="&lt;b&gt;Body&lt;/b&gt;" style="text;html=1;strokeColor=none;fillColor=none;align=left;verticalAlign=middle;whiteSpace=wrap;rounded=0;" parent="f_0iYCS7FFkeYnlUpW0v-35" vertex="1">
          <mxGeometry width="60" height="30" as="geometry" />
        </mxCell>
      </root>
    </mxGraphModel>
  </diagram>
  <diagram name="S1" id="-JPnqK7kVruUAOabXjC0">
    <mxGraphModel dx="994" dy="731" grid="1" gridSize="10" guides="1" tooltips="1" connect="1" arrows="1" fold="1" page="1" pageScale="1" pageWidth="1100" pageHeight="850" math="0" shadow="0">
      <root>
        <mxCell id="dBpZEgSGn-gRJcHpYtVz-0" />
        <mxCell id="dBpZEgSGn-gRJcHpYtVz-1" parent="dBpZEgSGn-gRJcHpYtVz-0" />
        <mxCell id="Fu5E0UvSnjd-8VM2BRuG-0" style="edgeStyle=orthogonalEdgeStyle;rounded=0;orthogonalLoop=1;jettySize=auto;html=1;exitX=1;exitY=0.5;exitDx=0;exitDy=0;entryX=0;entryY=0.5;entryDx=0;entryDy=0;fillColor=#fff2cc;strokeColor=#d6b656;" parent="dBpZEgSGn-gRJcHpYtVz-1" source="Fu5E0UvSnjd-8VM2BRuG-1" target="Fu5E0UvSnjd-8VM2BRuG-3" edge="1">
          <mxGeometry relative="1" as="geometry" />
        </mxCell>
        <mxCell id="Fu5E0UvSnjd-8VM2BRuG-1" value="" style="shape=lineEllipse;perimeter=ellipsePerimeter;whiteSpace=wrap;html=1;backgroundOutline=1;fillColor=#fff2cc;strokeColor=#d6b656;" parent="dBpZEgSGn-gRJcHpYtVz-1" vertex="1">
          <mxGeometry x="355" y="345" width="80" height="80" as="geometry" />
        </mxCell>
        <mxCell id="Fu5E0UvSnjd-8VM2BRuG-2" value="Nothing" style="text;html=1;strokeColor=#d6b656;fillColor=#fff2cc;align=center;verticalAlign=middle;whiteSpace=wrap;rounded=0;" parent="dBpZEgSGn-gRJcHpYtVz-1" vertex="1">
          <mxGeometry x="365" y="355" width="60" height="30" as="geometry" />
        </mxCell>
        <mxCell id="Fu5E0UvSnjd-8VM2BRuG-3" value="" style="shape=lineEllipse;perimeter=ellipsePerimeter;whiteSpace=wrap;html=1;backgroundOutline=1;fillColor=#fff2cc;strokeColor=#d6b656;" parent="dBpZEgSGn-gRJcHpYtVz-1" vertex="1">
          <mxGeometry x="615" y="345" width="80" height="80" as="geometry" />
        </mxCell>
        <mxCell id="Fu5E0UvSnjd-8VM2BRuG-4" value="Created" style="text;html=1;strokeColor=#d6b656;fillColor=#fff2cc;align=center;verticalAlign=middle;whiteSpace=wrap;rounded=0;" parent="dBpZEgSGn-gRJcHpYtVz-1" vertex="1">
          <mxGeometry x="625" y="355" width="60" height="30" as="geometry" />
        </mxCell>
        <mxCell id="0CzdcrmUjiFUkDlFj9Rp-0" value="" style="ellipse;whiteSpace=wrap;html=1;aspect=fixed;" parent="dBpZEgSGn-gRJcHpYtVz-1" vertex="1">
          <mxGeometry x="80" y="230" width="4" height="4" as="geometry" />
        </mxCell>
        <mxCell id="0CzdcrmUjiFUkDlFj9Rp-1" value="" style="ellipse;whiteSpace=wrap;html=1;aspect=fixed;" parent="dBpZEgSGn-gRJcHpYtVz-1" vertex="1">
          <mxGeometry x="1085" y="230" width="4" height="4" as="geometry" />
        </mxCell>
        <mxCell id="ycy2EDq7vNdWMAnFqB9M-0" value="Raw states" style="text;html=1;strokeColor=none;fillColor=none;align=center;verticalAlign=middle;whiteSpace=wrap;rounded=0;fontSize=24;" parent="dBpZEgSGn-gRJcHpYtVz-1" vertex="1">
          <mxGeometry x="365" y="110" width="320" height="30" as="geometry" />
        </mxCell>
        <mxCell id="ycy2EDq7vNdWMAnFqB9M-1" style="edgeStyle=orthogonalEdgeStyle;rounded=0;orthogonalLoop=1;jettySize=auto;html=1;exitX=1;exitY=0.5;exitDx=0;exitDy=0;entryX=0;entryY=0.5;entryDx=0;entryDy=0;" parent="dBpZEgSGn-gRJcHpYtVz-1" source="ycy2EDq7vNdWMAnFqB9M-2" target="ycy2EDq7vNdWMAnFqB9M-4" edge="1">
          <mxGeometry relative="1" as="geometry" />
        </mxCell>
        <UserObject label="1" link="data:page/id,3gOTRgeiZwrZgq-XQjOY" id="ycy2EDq7vNdWMAnFqB9M-2">
          <mxCell style="ellipse;whiteSpace=wrap;html=1;aspect=fixed;fillColor=#d5e8d4;strokeColor=#82b366;" parent="dBpZEgSGn-gRJcHpYtVz-1" vertex="1">
            <mxGeometry x="361" y="180" width="20" height="20" as="geometry" />
          </mxCell>
        </UserObject>
        <mxCell id="ycy2EDq7vNdWMAnFqB9M-3" style="edgeStyle=orthogonalEdgeStyle;rounded=0;orthogonalLoop=1;jettySize=auto;html=1;exitX=1;exitY=0.5;exitDx=0;exitDy=0;entryX=0;entryY=0.5;entryDx=0;entryDy=0;" parent="dBpZEgSGn-gRJcHpYtVz-1" source="ycy2EDq7vNdWMAnFqB9M-4" target="ycy2EDq7vNdWMAnFqB9M-7" edge="1">
          <mxGeometry relative="1" as="geometry" />
        </mxCell>
        <UserObject label="2" link="data:page/id,HOMqbK51VmRLCm19x1Nw" id="ycy2EDq7vNdWMAnFqB9M-4">
          <mxCell style="ellipse;whiteSpace=wrap;html=1;aspect=fixed;fillColor=#d5e8d4;strokeColor=#82b366;" parent="dBpZEgSGn-gRJcHpYtVz-1" vertex="1">
            <mxGeometry x="421" y="180" width="20" height="20" as="geometry" />
          </mxCell>
        </UserObject>
        <mxCell id="ycy2EDq7vNdWMAnFqB9M-5" style="edgeStyle=orthogonalEdgeStyle;rounded=0;orthogonalLoop=1;jettySize=auto;html=1;entryX=0;entryY=0.5;entryDx=0;entryDy=0;" parent="dBpZEgSGn-gRJcHpYtVz-1" source="ycy2EDq7vNdWMAnFqB9M-7" target="ycy2EDq7vNdWMAnFqB9M-10" edge="1">
          <mxGeometry relative="1" as="geometry" />
        </mxCell>
        <mxCell id="ycy2EDq7vNdWMAnFqB9M-6" style="rounded=0;orthogonalLoop=1;jettySize=auto;html=1;exitX=1;exitY=1;exitDx=0;exitDy=0;entryX=0.5;entryY=0;entryDx=0;entryDy=0;" parent="dBpZEgSGn-gRJcHpYtVz-1" source="ycy2EDq7vNdWMAnFqB9M-7" target="ycy2EDq7vNdWMAnFqB9M-15" edge="1">
          <mxGeometry relative="1" as="geometry" />
        </mxCell>
        <UserObject label="3" link="data:page/id,TSF0jeNE_sNj7Yi36eiF" id="ycy2EDq7vNdWMAnFqB9M-7">
          <mxCell style="ellipse;whiteSpace=wrap;html=1;aspect=fixed;fillColor=#d5e8d4;strokeColor=#82b366;" parent="dBpZEgSGn-gRJcHpYtVz-1" vertex="1">
            <mxGeometry x="481" y="180" width="20" height="20" as="geometry" />
          </mxCell>
        </UserObject>
        <mxCell id="ycy2EDq7vNdWMAnFqB9M-8" style="edgeStyle=orthogonalEdgeStyle;rounded=0;orthogonalLoop=1;jettySize=auto;html=1;exitX=1;exitY=0.5;exitDx=0;exitDy=0;entryX=0;entryY=0.5;entryDx=0;entryDy=0;" parent="dBpZEgSGn-gRJcHpYtVz-1" source="ycy2EDq7vNdWMAnFqB9M-10" target="ycy2EDq7vNdWMAnFqB9M-12" edge="1">
          <mxGeometry relative="1" as="geometry" />
        </mxCell>
        <mxCell id="ycy2EDq7vNdWMAnFqB9M-9" style="rounded=0;orthogonalLoop=1;jettySize=auto;html=1;exitX=1;exitY=1;exitDx=0;exitDy=0;entryX=0.5;entryY=0;entryDx=0;entryDy=0;" parent="dBpZEgSGn-gRJcHpYtVz-1" source="ycy2EDq7vNdWMAnFqB9M-10" target="ycy2EDq7vNdWMAnFqB9M-20" edge="1">
          <mxGeometry relative="1" as="geometry" />
        </mxCell>
        <UserObject label="4" link="data:page/id,M0PFeYh-DXWQnRFdKz0Y" id="ycy2EDq7vNdWMAnFqB9M-10">
          <mxCell style="ellipse;whiteSpace=wrap;html=1;aspect=fixed;fillColor=#d5e8d4;strokeColor=#82b366;" parent="dBpZEgSGn-gRJcHpYtVz-1" vertex="1">
            <mxGeometry x="541" y="180" width="20" height="20" as="geometry" />
          </mxCell>
        </UserObject>
        <mxCell id="ycy2EDq7vNdWMAnFqB9M-11" style="edgeStyle=orthogonalEdgeStyle;rounded=0;orthogonalLoop=1;jettySize=auto;html=1;exitX=1;exitY=0.5;exitDx=0;exitDy=0;entryX=0;entryY=0.5;entryDx=0;entryDy=0;" parent="dBpZEgSGn-gRJcHpYtVz-1" source="ycy2EDq7vNdWMAnFqB9M-12" target="ycy2EDq7vNdWMAnFqB9M-13" edge="1">
          <mxGeometry relative="1" as="geometry" />
        </mxCell>
        <UserObject label="5" link="data:page/id,Y5B1WkDeQFZ4UK6oZjhO" id="ycy2EDq7vNdWMAnFqB9M-12">
          <mxCell style="ellipse;whiteSpace=wrap;html=1;aspect=fixed;fillColor=#d5e8d4;strokeColor=#82b366;" parent="dBpZEgSGn-gRJcHpYtVz-1" vertex="1">
            <mxGeometry x="601" y="180" width="20" height="20" as="geometry" />
          </mxCell>
        </UserObject>
        <UserObject label="I" link="data:page/id,S1bIpW9pWT5yYSV2KL6C" id="ycy2EDq7vNdWMAnFqB9M-13">
          <mxCell style="ellipse;whiteSpace=wrap;html=1;aspect=fixed;fillColor=#d5e8d4;strokeColor=#82b366;" parent="dBpZEgSGn-gRJcHpYtVz-1" vertex="1">
            <mxGeometry x="661" y="180" width="20" height="20" as="geometry" />
          </mxCell>
        </UserObject>
        <mxCell id="ycy2EDq7vNdWMAnFqB9M-14" style="rounded=0;orthogonalLoop=1;jettySize=auto;html=1;exitX=1;exitY=0;exitDx=0;exitDy=0;entryX=0;entryY=1;entryDx=0;entryDy=0;" parent="dBpZEgSGn-gRJcHpYtVz-1" source="ycy2EDq7vNdWMAnFqB9M-15" target="ycy2EDq7vNdWMAnFqB9M-10" edge="1">
          <mxGeometry relative="1" as="geometry" />
        </mxCell>
        <UserObject label="S1" id="ycy2EDq7vNdWMAnFqB9M-15">
          <mxCell style="ellipse;whiteSpace=wrap;html=1;aspect=fixed;fillColor=#dae8fc;strokeColor=#6c8ebf;" parent="dBpZEgSGn-gRJcHpYtVz-1" vertex="1">
            <mxGeometry x="511" y="220" width="20" height="20" as="geometry" />
          </mxCell>
        </UserObject>
        <mxCell id="ycy2EDq7vNdWMAnFqB9M-16" style="edgeStyle=orthogonalEdgeStyle;rounded=0;orthogonalLoop=1;jettySize=auto;html=1;exitX=0.5;exitY=0;exitDx=0;exitDy=0;entryX=0.5;entryY=1;entryDx=0;entryDy=0;" parent="dBpZEgSGn-gRJcHpYtVz-1" source="ycy2EDq7vNdWMAnFqB9M-17" target="ycy2EDq7vNdWMAnFqB9M-12" edge="1">
          <mxGeometry relative="1" as="geometry" />
        </mxCell>
        <UserObject label="S2" link="data:page/id,jAk-pJTvUaYThIdQby1w" id="ycy2EDq7vNdWMAnFqB9M-17">
          <mxCell style="ellipse;whiteSpace=wrap;html=1;aspect=fixed;fillColor=#d5e8d4;strokeColor=#82b366;" parent="dBpZEgSGn-gRJcHpYtVz-1" vertex="1">
            <mxGeometry x="601" y="220" width="20" height="20" as="geometry" />
          </mxCell>
        </UserObject>
        <mxCell id="ycy2EDq7vNdWMAnFqB9M-18" style="rounded=0;orthogonalLoop=1;jettySize=auto;html=1;exitX=1;exitY=0;exitDx=0;exitDy=0;entryX=0;entryY=1;entryDx=0;entryDy=0;" parent="dBpZEgSGn-gRJcHpYtVz-1" source="ycy2EDq7vNdWMAnFqB9M-20" target="ycy2EDq7vNdWMAnFqB9M-12" edge="1">
          <mxGeometry relative="1" as="geometry" />
        </mxCell>
        <mxCell id="ycy2EDq7vNdWMAnFqB9M-19" style="edgeStyle=orthogonalEdgeStyle;rounded=0;orthogonalLoop=1;jettySize=auto;html=1;exitX=1;exitY=0.5;exitDx=0;exitDy=0;entryX=0;entryY=0.5;entryDx=0;entryDy=0;" parent="dBpZEgSGn-gRJcHpYtVz-1" source="ycy2EDq7vNdWMAnFqB9M-20" target="ycy2EDq7vNdWMAnFqB9M-17" edge="1">
          <mxGeometry relative="1" as="geometry" />
        </mxCell>
        <UserObject label="T1" link="data:page/id,C11qGNApYIC4MWzOsMO5" id="ycy2EDq7vNdWMAnFqB9M-20">
          <mxCell style="ellipse;whiteSpace=wrap;html=1;aspect=fixed;fillColor=#d5e8d4;strokeColor=#82b366;" parent="dBpZEgSGn-gRJcHpYtVz-1" vertex="1">
            <mxGeometry x="559" y="220" width="20" height="20" as="geometry" />
          </mxCell>
        </UserObject>
        <UserObject label="" link="data:page/id,M0PFeYh-DXWQnRFdKz0Y" id="ycy2EDq7vNdWMAnFqB9M-21">
          <mxCell style="ellipse;whiteSpace=wrap;html=1;aspect=fixed;fillColor=#d5e8d4;strokeColor=#82b366;" parent="dBpZEgSGn-gRJcHpYtVz-1" vertex="1">
            <mxGeometry x="655" y="100" width="50" height="50" as="geometry" />
          </mxCell>
        </UserObject>
        <UserObject label="" link="data:page/id,M0PFeYh-DXWQnRFdKz0Y" id="ycy2EDq7vNdWMAnFqB9M-22">
          <mxCell style="shape=flexArrow;endArrow=classic;html=1;rounded=0;endWidth=4;endSize=4.6;" parent="dBpZEgSGn-gRJcHpYtVz-1" edge="1">
            <mxGeometry width="50" height="50" relative="1" as="geometry">
              <mxPoint x="666.9200000000001" y="127" as="sourcePoint" />
              <mxPoint x="697.09" y="127" as="targetPoint" />
            </mxGeometry>
          </mxCell>
        </UserObject>
        <UserObject label="" link="data:page/id,TSF0jeNE_sNj7Yi36eiF" id="ycy2EDq7vNdWMAnFqB9M-23">
          <mxCell style="ellipse;whiteSpace=wrap;html=1;aspect=fixed;fillColor=#d5e8d4;strokeColor=#82b366;" parent="dBpZEgSGn-gRJcHpYtVz-1" vertex="1">
            <mxGeometry x="340" y="100" width="50" height="50" as="geometry" />
          </mxCell>
        </UserObject>
        <UserObject label="" link="data:page/id,TSF0jeNE_sNj7Yi36eiF" id="ycy2EDq7vNdWMAnFqB9M-24">
          <mxCell style="shape=flexArrow;endArrow=classic;html=1;rounded=0;endWidth=4;endSize=4.6;" parent="dBpZEgSGn-gRJcHpYtVz-1" edge="1">
            <mxGeometry width="50" height="50" relative="1" as="geometry">
              <mxPoint x="379.09000000000015" y="127" as="sourcePoint" />
              <mxPoint x="348.9200000000002" y="127" as="targetPoint" />
            </mxGeometry>
          </mxCell>
        </UserObject>
      </root>
    </mxGraphModel>
  </diagram>
  <diagram name="4" id="M0PFeYh-DXWQnRFdKz0Y">
    <mxGraphModel dx="994" dy="731" grid="1" gridSize="10" guides="1" tooltips="1" connect="1" arrows="1" fold="1" page="1" pageScale="1" pageWidth="1100" pageHeight="850" math="0" shadow="0">
      <root>
        <mxCell id="fKGYZCWIb_z3kOCsk44L-0" />
        <mxCell id="fKGYZCWIb_z3kOCsk44L-1" parent="fKGYZCWIb_z3kOCsk44L-0" />
        <mxCell id="ZxapLbhsnTIVHqIm46iQ-0" value="" style="group" parent="fKGYZCWIb_z3kOCsk44L-1" vertex="1" connectable="0">
          <mxGeometry x="750" y="210" width="340" height="600" as="geometry" />
        </mxCell>
        <mxCell id="ZxapLbhsnTIVHqIm46iQ-1" value="" style="rounded=0;whiteSpace=wrap;html=1;dashed=1;" parent="ZxapLbhsnTIVHqIm46iQ-0" vertex="1">
          <mxGeometry y="70" width="250" height="570" as="geometry" />
        </mxCell>
        <mxCell id="ZxapLbhsnTIVHqIm46iQ-2" value="&lt;b&gt;Output&lt;/b&gt;" style="text;html=1;strokeColor=none;fillColor=none;align=left;verticalAlign=middle;whiteSpace=wrap;rounded=0;" parent="ZxapLbhsnTIVHqIm46iQ-0" vertex="1">
          <mxGeometry y="40" width="60" height="30" as="geometry" />
        </mxCell>
        <mxCell id="ZxapLbhsnTIVHqIm46iQ-3" value="out" style="ellipse;whiteSpace=wrap;html=1;" parent="ZxapLbhsnTIVHqIm46iQ-0" vertex="1">
          <mxGeometry x="290" y="140" width="50" height="430" as="geometry" />
        </mxCell>
        <mxCell id="ZxapLbhsnTIVHqIm46iQ-5" value="Body" style="text;html=1;strokeColor=none;fillColor=none;align=center;verticalAlign=middle;whiteSpace=wrap;rounded=0;fontSize=24;" parent="fKGYZCWIb_z3kOCsk44L-1" vertex="1">
          <mxGeometry x="365" y="110" width="320" height="30" as="geometry" />
        </mxCell>
        <mxCell id="ZxapLbhsnTIVHqIm46iQ-8" style="edgeStyle=orthogonalEdgeStyle;rounded=0;orthogonalLoop=1;jettySize=auto;html=1;exitX=1;exitY=0.5;exitDx=0;exitDy=0;entryX=0;entryY=0.5;entryDx=0;entryDy=0;" parent="fKGYZCWIb_z3kOCsk44L-1" source="ZxapLbhsnTIVHqIm46iQ-9" target="ZxapLbhsnTIVHqIm46iQ-11" edge="1">
          <mxGeometry relative="1" as="geometry" />
        </mxCell>
        <UserObject label="1" link="data:page/id,3gOTRgeiZwrZgq-XQjOY" id="ZxapLbhsnTIVHqIm46iQ-9">
          <mxCell style="ellipse;whiteSpace=wrap;html=1;aspect=fixed;fillColor=#d5e8d4;strokeColor=#82b366;" parent="fKGYZCWIb_z3kOCsk44L-1" vertex="1">
            <mxGeometry x="360" y="180" width="20" height="20" as="geometry" />
          </mxCell>
        </UserObject>
        <mxCell id="ZxapLbhsnTIVHqIm46iQ-10" style="edgeStyle=orthogonalEdgeStyle;rounded=0;orthogonalLoop=1;jettySize=auto;html=1;exitX=1;exitY=0.5;exitDx=0;exitDy=0;entryX=0;entryY=0.5;entryDx=0;entryDy=0;" parent="fKGYZCWIb_z3kOCsk44L-1" source="ZxapLbhsnTIVHqIm46iQ-11" target="ZxapLbhsnTIVHqIm46iQ-14" edge="1">
          <mxGeometry relative="1" as="geometry" />
        </mxCell>
        <UserObject label="2" link="data:page/id,HOMqbK51VmRLCm19x1Nw" id="ZxapLbhsnTIVHqIm46iQ-11">
          <mxCell style="ellipse;whiteSpace=wrap;html=1;aspect=fixed;fillColor=#d5e8d4;strokeColor=#82b366;" parent="fKGYZCWIb_z3kOCsk44L-1" vertex="1">
            <mxGeometry x="420" y="180" width="20" height="20" as="geometry" />
          </mxCell>
        </UserObject>
        <mxCell id="ZxapLbhsnTIVHqIm46iQ-12" style="edgeStyle=orthogonalEdgeStyle;rounded=0;orthogonalLoop=1;jettySize=auto;html=1;entryX=0;entryY=0.5;entryDx=0;entryDy=0;" parent="fKGYZCWIb_z3kOCsk44L-1" source="ZxapLbhsnTIVHqIm46iQ-14" target="ZxapLbhsnTIVHqIm46iQ-17" edge="1">
          <mxGeometry relative="1" as="geometry" />
        </mxCell>
        <mxCell id="ZxapLbhsnTIVHqIm46iQ-13" style="rounded=0;orthogonalLoop=1;jettySize=auto;html=1;exitX=1;exitY=1;exitDx=0;exitDy=0;entryX=0.5;entryY=0;entryDx=0;entryDy=0;" parent="fKGYZCWIb_z3kOCsk44L-1" source="ZxapLbhsnTIVHqIm46iQ-14" target="ZxapLbhsnTIVHqIm46iQ-22" edge="1">
          <mxGeometry relative="1" as="geometry" />
        </mxCell>
        <UserObject label="3" link="data:page/id,TSF0jeNE_sNj7Yi36eiF" id="ZxapLbhsnTIVHqIm46iQ-14">
          <mxCell style="ellipse;whiteSpace=wrap;html=1;aspect=fixed;fillColor=#d5e8d4;strokeColor=#82b366;" parent="fKGYZCWIb_z3kOCsk44L-1" vertex="1">
            <mxGeometry x="480" y="180" width="20" height="20" as="geometry" />
          </mxCell>
        </UserObject>
        <mxCell id="ZxapLbhsnTIVHqIm46iQ-15" style="edgeStyle=orthogonalEdgeStyle;rounded=0;orthogonalLoop=1;jettySize=auto;html=1;exitX=1;exitY=0.5;exitDx=0;exitDy=0;entryX=0;entryY=0.5;entryDx=0;entryDy=0;" parent="fKGYZCWIb_z3kOCsk44L-1" source="ZxapLbhsnTIVHqIm46iQ-17" target="ZxapLbhsnTIVHqIm46iQ-19" edge="1">
          <mxGeometry relative="1" as="geometry" />
        </mxCell>
        <mxCell id="ZxapLbhsnTIVHqIm46iQ-16" style="rounded=0;orthogonalLoop=1;jettySize=auto;html=1;exitX=1;exitY=1;exitDx=0;exitDy=0;entryX=0.5;entryY=0;entryDx=0;entryDy=0;" parent="fKGYZCWIb_z3kOCsk44L-1" source="ZxapLbhsnTIVHqIm46iQ-17" target="ZxapLbhsnTIVHqIm46iQ-27" edge="1">
          <mxGeometry relative="1" as="geometry" />
        </mxCell>
        <UserObject label="4" id="ZxapLbhsnTIVHqIm46iQ-17">
          <mxCell style="ellipse;whiteSpace=wrap;html=1;aspect=fixed;fillColor=#dae8fc;strokeColor=#6c8ebf;" parent="fKGYZCWIb_z3kOCsk44L-1" vertex="1">
            <mxGeometry x="540" y="180" width="20" height="20" as="geometry" />
          </mxCell>
        </UserObject>
        <mxCell id="ZxapLbhsnTIVHqIm46iQ-18" style="edgeStyle=orthogonalEdgeStyle;rounded=0;orthogonalLoop=1;jettySize=auto;html=1;exitX=1;exitY=0.5;exitDx=0;exitDy=0;entryX=0;entryY=0.5;entryDx=0;entryDy=0;" parent="fKGYZCWIb_z3kOCsk44L-1" source="ZxapLbhsnTIVHqIm46iQ-19" target="ZxapLbhsnTIVHqIm46iQ-20" edge="1">
          <mxGeometry relative="1" as="geometry" />
        </mxCell>
        <UserObject label="5" link="data:page/id,Y5B1WkDeQFZ4UK6oZjhO" id="ZxapLbhsnTIVHqIm46iQ-19">
          <mxCell style="ellipse;whiteSpace=wrap;html=1;aspect=fixed;fillColor=#d5e8d4;strokeColor=#82b366;" parent="fKGYZCWIb_z3kOCsk44L-1" vertex="1">
            <mxGeometry x="600" y="180" width="20" height="20" as="geometry" />
          </mxCell>
        </UserObject>
        <UserObject label="I" link="data:page/id,S1bIpW9pWT5yYSV2KL6C" id="ZxapLbhsnTIVHqIm46iQ-20">
          <mxCell style="ellipse;whiteSpace=wrap;html=1;aspect=fixed;fillColor=#d5e8d4;strokeColor=#82b366;" parent="fKGYZCWIb_z3kOCsk44L-1" vertex="1">
            <mxGeometry x="660" y="180" width="20" height="20" as="geometry" />
          </mxCell>
        </UserObject>
        <mxCell id="ZxapLbhsnTIVHqIm46iQ-21" style="rounded=0;orthogonalLoop=1;jettySize=auto;html=1;exitX=1;exitY=0;exitDx=0;exitDy=0;entryX=0;entryY=1;entryDx=0;entryDy=0;" parent="fKGYZCWIb_z3kOCsk44L-1" source="ZxapLbhsnTIVHqIm46iQ-22" target="ZxapLbhsnTIVHqIm46iQ-17" edge="1">
          <mxGeometry relative="1" as="geometry" />
        </mxCell>
        <UserObject label="S1" link="data:page/id,-JPnqK7kVruUAOabXjC0" id="ZxapLbhsnTIVHqIm46iQ-22">
          <mxCell style="ellipse;whiteSpace=wrap;html=1;aspect=fixed;fillColor=#d5e8d4;strokeColor=#82b366;" parent="fKGYZCWIb_z3kOCsk44L-1" vertex="1">
            <mxGeometry x="510" y="220" width="20" height="20" as="geometry" />
          </mxCell>
        </UserObject>
        <mxCell id="ZxapLbhsnTIVHqIm46iQ-23" style="edgeStyle=orthogonalEdgeStyle;rounded=0;orthogonalLoop=1;jettySize=auto;html=1;exitX=0.5;exitY=0;exitDx=0;exitDy=0;entryX=0.5;entryY=1;entryDx=0;entryDy=0;" parent="fKGYZCWIb_z3kOCsk44L-1" source="ZxapLbhsnTIVHqIm46iQ-24" target="ZxapLbhsnTIVHqIm46iQ-19" edge="1">
          <mxGeometry relative="1" as="geometry" />
        </mxCell>
        <UserObject label="S2" link="data:page/id,jAk-pJTvUaYThIdQby1w" id="ZxapLbhsnTIVHqIm46iQ-24">
          <mxCell style="ellipse;whiteSpace=wrap;html=1;aspect=fixed;fillColor=#d5e8d4;strokeColor=#82b366;" parent="fKGYZCWIb_z3kOCsk44L-1" vertex="1">
            <mxGeometry x="600" y="220" width="20" height="20" as="geometry" />
          </mxCell>
        </UserObject>
        <mxCell id="ZxapLbhsnTIVHqIm46iQ-25" style="rounded=0;orthogonalLoop=1;jettySize=auto;html=1;exitX=1;exitY=0;exitDx=0;exitDy=0;entryX=0;entryY=1;entryDx=0;entryDy=0;" parent="fKGYZCWIb_z3kOCsk44L-1" source="ZxapLbhsnTIVHqIm46iQ-27" target="ZxapLbhsnTIVHqIm46iQ-19" edge="1">
          <mxGeometry relative="1" as="geometry" />
        </mxCell>
        <mxCell id="ZxapLbhsnTIVHqIm46iQ-26" style="edgeStyle=orthogonalEdgeStyle;rounded=0;orthogonalLoop=1;jettySize=auto;html=1;exitX=1;exitY=0.5;exitDx=0;exitDy=0;entryX=0;entryY=0.5;entryDx=0;entryDy=0;" parent="fKGYZCWIb_z3kOCsk44L-1" source="ZxapLbhsnTIVHqIm46iQ-27" target="ZxapLbhsnTIVHqIm46iQ-24" edge="1">
          <mxGeometry relative="1" as="geometry" />
        </mxCell>
        <UserObject label="T1" link="data:page/id,C11qGNApYIC4MWzOsMO5" id="ZxapLbhsnTIVHqIm46iQ-27">
          <mxCell style="ellipse;whiteSpace=wrap;html=1;aspect=fixed;fillColor=#d5e8d4;strokeColor=#82b366;" parent="fKGYZCWIb_z3kOCsk44L-1" vertex="1">
            <mxGeometry x="558" y="220" width="20" height="20" as="geometry" />
          </mxCell>
        </UserObject>
        <UserObject label="" link="data:page/id,Y5B1WkDeQFZ4UK6oZjhO" id="ZxapLbhsnTIVHqIm46iQ-28">
          <mxCell style="ellipse;whiteSpace=wrap;html=1;aspect=fixed;fillColor=#d5e8d4;strokeColor=#82b366;" parent="fKGYZCWIb_z3kOCsk44L-1" vertex="1">
            <mxGeometry x="655" y="100" width="50" height="50" as="geometry" />
          </mxCell>
        </UserObject>
        <UserObject label="" link="data:page/id,Y5B1WkDeQFZ4UK6oZjhO" id="ZxapLbhsnTIVHqIm46iQ-29">
          <mxCell style="shape=flexArrow;endArrow=classic;html=1;rounded=0;endWidth=4;endSize=4.6;" parent="fKGYZCWIb_z3kOCsk44L-1" edge="1">
            <mxGeometry width="50" height="50" relative="1" as="geometry">
              <mxPoint x="666.9200000000001" y="127" as="sourcePoint" />
              <mxPoint x="697.09" y="127" as="targetPoint" />
            </mxGeometry>
          </mxCell>
        </UserObject>
        <UserObject label="" link="data:page/id,TSF0jeNE_sNj7Yi36eiF" id="ZxapLbhsnTIVHqIm46iQ-30">
          <mxCell style="ellipse;whiteSpace=wrap;html=1;aspect=fixed;fillColor=#d5e8d4;strokeColor=#82b366;" parent="fKGYZCWIb_z3kOCsk44L-1" vertex="1">
            <mxGeometry x="340" y="100" width="50" height="50" as="geometry" />
          </mxCell>
        </UserObject>
        <UserObject label="" link="data:page/id,TSF0jeNE_sNj7Yi36eiF" id="ZxapLbhsnTIVHqIm46iQ-31">
          <mxCell style="shape=flexArrow;endArrow=classic;html=1;rounded=0;endWidth=4;endSize=4.6;" parent="fKGYZCWIb_z3kOCsk44L-1" edge="1">
            <mxGeometry width="50" height="50" relative="1" as="geometry">
              <mxPoint x="379.09000000000015" y="127" as="sourcePoint" />
              <mxPoint x="348.9200000000002" y="127" as="targetPoint" />
            </mxGeometry>
          </mxCell>
        </UserObject>
        <mxCell id="ZxapLbhsnTIVHqIm46iQ-32" value="" style="group" parent="fKGYZCWIb_z3kOCsk44L-1" vertex="1" connectable="0">
          <mxGeometry x="80" y="250" width="250" height="600" as="geometry" />
        </mxCell>
        <mxCell id="ZxapLbhsnTIVHqIm46iQ-33" value="" style="rounded=0;whiteSpace=wrap;html=1;dashed=1;" parent="ZxapLbhsnTIVHqIm46iQ-32" vertex="1">
          <mxGeometry y="30" width="250" height="570" as="geometry" />
        </mxCell>
        <mxCell id="ZxapLbhsnTIVHqIm46iQ-34" value="&lt;b&gt;Input&lt;/b&gt;" style="text;html=1;strokeColor=none;fillColor=none;align=left;verticalAlign=middle;whiteSpace=wrap;rounded=0;" parent="ZxapLbhsnTIVHqIm46iQ-32" vertex="1">
          <mxGeometry width="60" height="30" as="geometry" />
        </mxCell>
        <mxCell id="ZxapLbhsnTIVHqIm46iQ-35" value="" style="group" parent="fKGYZCWIb_z3kOCsk44L-1" vertex="1" connectable="0">
          <mxGeometry x="346" y="250" width="390" height="600" as="geometry" />
        </mxCell>
        <mxCell id="ZxapLbhsnTIVHqIm46iQ-36" value="" style="rounded=0;whiteSpace=wrap;html=1;dashed=1;" parent="ZxapLbhsnTIVHqIm46iQ-35" vertex="1">
          <mxGeometry y="30" width="390" height="570" as="geometry" />
        </mxCell>
        <mxCell id="ZxapLbhsnTIVHqIm46iQ-37" value="&lt;b&gt;Body&lt;/b&gt;" style="text;html=1;strokeColor=none;fillColor=none;align=left;verticalAlign=middle;whiteSpace=wrap;rounded=0;" parent="ZxapLbhsnTIVHqIm46iQ-35" vertex="1">
          <mxGeometry width="60" height="30" as="geometry" />
        </mxCell>
      </root>
    </mxGraphModel>
  </diagram>
  <diagram name="T1" id="C11qGNApYIC4MWzOsMO5">
    <mxGraphModel dx="994" dy="731" grid="1" gridSize="10" guides="1" tooltips="1" connect="1" arrows="1" fold="1" page="1" pageScale="1" pageWidth="1100" pageHeight="850" math="1" shadow="0">
      <root>
        <mxCell id="UzYm02WXKTJv9H1VEio6-0" />
        <mxCell id="UzYm02WXKTJv9H1VEio6-1" parent="UzYm02WXKTJv9H1VEio6-0" />
        <mxCell id="0bnGsn4zdjwsSH2EL1Oj-5" value="Types" style="text;html=1;strokeColor=none;fillColor=none;align=center;verticalAlign=middle;whiteSpace=wrap;rounded=0;fontSize=24;" parent="UzYm02WXKTJv9H1VEio6-1" vertex="1">
          <mxGeometry x="365" y="110" width="320" height="30" as="geometry" />
        </mxCell>
        <mxCell id="0bnGsn4zdjwsSH2EL1Oj-6" style="edgeStyle=orthogonalEdgeStyle;rounded=0;orthogonalLoop=1;jettySize=auto;html=1;exitX=1;exitY=0.5;exitDx=0;exitDy=0;entryX=0;entryY=0.5;entryDx=0;entryDy=0;" parent="UzYm02WXKTJv9H1VEio6-1" source="0bnGsn4zdjwsSH2EL1Oj-7" target="0bnGsn4zdjwsSH2EL1Oj-9" edge="1">
          <mxGeometry relative="1" as="geometry" />
        </mxCell>
        <UserObject label="1" link="data:page/id,3gOTRgeiZwrZgq-XQjOY" id="0bnGsn4zdjwsSH2EL1Oj-7">
          <mxCell style="ellipse;whiteSpace=wrap;html=1;aspect=fixed;fillColor=#d5e8d4;strokeColor=#82b366;" parent="UzYm02WXKTJv9H1VEio6-1" vertex="1">
            <mxGeometry x="360" y="180" width="20" height="20" as="geometry" />
          </mxCell>
        </UserObject>
        <mxCell id="0bnGsn4zdjwsSH2EL1Oj-8" style="edgeStyle=orthogonalEdgeStyle;rounded=0;orthogonalLoop=1;jettySize=auto;html=1;exitX=1;exitY=0.5;exitDx=0;exitDy=0;entryX=0;entryY=0.5;entryDx=0;entryDy=0;" parent="UzYm02WXKTJv9H1VEio6-1" source="0bnGsn4zdjwsSH2EL1Oj-9" target="0bnGsn4zdjwsSH2EL1Oj-12" edge="1">
          <mxGeometry relative="1" as="geometry" />
        </mxCell>
        <UserObject label="2" link="data:page/id,HOMqbK51VmRLCm19x1Nw" id="0bnGsn4zdjwsSH2EL1Oj-9">
          <mxCell style="ellipse;whiteSpace=wrap;html=1;aspect=fixed;fillColor=#d5e8d4;strokeColor=#82b366;" parent="UzYm02WXKTJv9H1VEio6-1" vertex="1">
            <mxGeometry x="420" y="180" width="20" height="20" as="geometry" />
          </mxCell>
        </UserObject>
        <mxCell id="0bnGsn4zdjwsSH2EL1Oj-10" style="edgeStyle=orthogonalEdgeStyle;rounded=0;orthogonalLoop=1;jettySize=auto;html=1;entryX=0;entryY=0.5;entryDx=0;entryDy=0;" parent="UzYm02WXKTJv9H1VEio6-1" source="0bnGsn4zdjwsSH2EL1Oj-12" target="0bnGsn4zdjwsSH2EL1Oj-15" edge="1">
          <mxGeometry relative="1" as="geometry" />
        </mxCell>
        <mxCell id="0bnGsn4zdjwsSH2EL1Oj-11" style="rounded=0;orthogonalLoop=1;jettySize=auto;html=1;exitX=1;exitY=1;exitDx=0;exitDy=0;entryX=0.5;entryY=0;entryDx=0;entryDy=0;" parent="UzYm02WXKTJv9H1VEio6-1" source="0bnGsn4zdjwsSH2EL1Oj-12" target="0bnGsn4zdjwsSH2EL1Oj-20" edge="1">
          <mxGeometry relative="1" as="geometry" />
        </mxCell>
        <UserObject label="3" link="data:page/id,TSF0jeNE_sNj7Yi36eiF" id="0bnGsn4zdjwsSH2EL1Oj-12">
          <mxCell style="ellipse;whiteSpace=wrap;html=1;aspect=fixed;fillColor=#d5e8d4;strokeColor=#82b366;" parent="UzYm02WXKTJv9H1VEio6-1" vertex="1">
            <mxGeometry x="480" y="180" width="20" height="20" as="geometry" />
          </mxCell>
        </UserObject>
        <mxCell id="0bnGsn4zdjwsSH2EL1Oj-13" style="edgeStyle=orthogonalEdgeStyle;rounded=0;orthogonalLoop=1;jettySize=auto;html=1;exitX=1;exitY=0.5;exitDx=0;exitDy=0;entryX=0;entryY=0.5;entryDx=0;entryDy=0;" parent="UzYm02WXKTJv9H1VEio6-1" source="0bnGsn4zdjwsSH2EL1Oj-15" target="0bnGsn4zdjwsSH2EL1Oj-17" edge="1">
          <mxGeometry relative="1" as="geometry" />
        </mxCell>
        <mxCell id="0bnGsn4zdjwsSH2EL1Oj-14" style="rounded=0;orthogonalLoop=1;jettySize=auto;html=1;exitX=1;exitY=1;exitDx=0;exitDy=0;entryX=0.5;entryY=0;entryDx=0;entryDy=0;" parent="UzYm02WXKTJv9H1VEio6-1" source="0bnGsn4zdjwsSH2EL1Oj-15" target="0bnGsn4zdjwsSH2EL1Oj-25" edge="1">
          <mxGeometry relative="1" as="geometry" />
        </mxCell>
        <UserObject label="4" link="data:page/id,M0PFeYh-DXWQnRFdKz0Y" id="0bnGsn4zdjwsSH2EL1Oj-15">
          <mxCell style="ellipse;whiteSpace=wrap;html=1;aspect=fixed;fillColor=#d5e8d4;strokeColor=#82b366;" parent="UzYm02WXKTJv9H1VEio6-1" vertex="1">
            <mxGeometry x="540" y="180" width="20" height="20" as="geometry" />
          </mxCell>
        </UserObject>
        <mxCell id="0bnGsn4zdjwsSH2EL1Oj-16" style="edgeStyle=orthogonalEdgeStyle;rounded=0;orthogonalLoop=1;jettySize=auto;html=1;exitX=1;exitY=0.5;exitDx=0;exitDy=0;entryX=0;entryY=0.5;entryDx=0;entryDy=0;" parent="UzYm02WXKTJv9H1VEio6-1" source="0bnGsn4zdjwsSH2EL1Oj-17" target="0bnGsn4zdjwsSH2EL1Oj-18" edge="1">
          <mxGeometry relative="1" as="geometry" />
        </mxCell>
        <UserObject label="5" link="data:page/id,Y5B1WkDeQFZ4UK6oZjhO" id="0bnGsn4zdjwsSH2EL1Oj-17">
          <mxCell style="ellipse;whiteSpace=wrap;html=1;aspect=fixed;fillColor=#d5e8d4;strokeColor=#82b366;" parent="UzYm02WXKTJv9H1VEio6-1" vertex="1">
            <mxGeometry x="600" y="180" width="20" height="20" as="geometry" />
          </mxCell>
        </UserObject>
        <UserObject label="I" link="data:page/id,S1bIpW9pWT5yYSV2KL6C" id="0bnGsn4zdjwsSH2EL1Oj-18">
          <mxCell style="ellipse;whiteSpace=wrap;html=1;aspect=fixed;fillColor=#d5e8d4;strokeColor=#82b366;" parent="UzYm02WXKTJv9H1VEio6-1" vertex="1">
            <mxGeometry x="660" y="180" width="20" height="20" as="geometry" />
          </mxCell>
        </UserObject>
        <mxCell id="0bnGsn4zdjwsSH2EL1Oj-19" style="rounded=0;orthogonalLoop=1;jettySize=auto;html=1;exitX=1;exitY=0;exitDx=0;exitDy=0;entryX=0;entryY=1;entryDx=0;entryDy=0;" parent="UzYm02WXKTJv9H1VEio6-1" source="0bnGsn4zdjwsSH2EL1Oj-20" target="0bnGsn4zdjwsSH2EL1Oj-15" edge="1">
          <mxGeometry relative="1" as="geometry" />
        </mxCell>
        <UserObject label="S1" link="data:page/id,-JPnqK7kVruUAOabXjC0" id="0bnGsn4zdjwsSH2EL1Oj-20">
          <mxCell style="ellipse;whiteSpace=wrap;html=1;aspect=fixed;fillColor=#d5e8d4;strokeColor=#82b366;" parent="UzYm02WXKTJv9H1VEio6-1" vertex="1">
            <mxGeometry x="510" y="220" width="20" height="20" as="geometry" />
          </mxCell>
        </UserObject>
        <mxCell id="0bnGsn4zdjwsSH2EL1Oj-21" style="edgeStyle=orthogonalEdgeStyle;rounded=0;orthogonalLoop=1;jettySize=auto;html=1;exitX=0.5;exitY=0;exitDx=0;exitDy=0;entryX=0.5;entryY=1;entryDx=0;entryDy=0;" parent="UzYm02WXKTJv9H1VEio6-1" source="0bnGsn4zdjwsSH2EL1Oj-22" target="0bnGsn4zdjwsSH2EL1Oj-17" edge="1">
          <mxGeometry relative="1" as="geometry" />
        </mxCell>
        <UserObject label="S2" link="data:page/id,jAk-pJTvUaYThIdQby1w" id="0bnGsn4zdjwsSH2EL1Oj-22">
          <mxCell style="ellipse;whiteSpace=wrap;html=1;aspect=fixed;fillColor=#d5e8d4;strokeColor=#82b366;" parent="UzYm02WXKTJv9H1VEio6-1" vertex="1">
            <mxGeometry x="600" y="220" width="20" height="20" as="geometry" />
          </mxCell>
        </UserObject>
        <mxCell id="0bnGsn4zdjwsSH2EL1Oj-23" style="rounded=0;orthogonalLoop=1;jettySize=auto;html=1;exitX=1;exitY=0;exitDx=0;exitDy=0;entryX=0;entryY=1;entryDx=0;entryDy=0;" parent="UzYm02WXKTJv9H1VEio6-1" source="0bnGsn4zdjwsSH2EL1Oj-25" target="0bnGsn4zdjwsSH2EL1Oj-17" edge="1">
          <mxGeometry relative="1" as="geometry" />
        </mxCell>
        <mxCell id="0bnGsn4zdjwsSH2EL1Oj-24" style="edgeStyle=orthogonalEdgeStyle;rounded=0;orthogonalLoop=1;jettySize=auto;html=1;exitX=1;exitY=0.5;exitDx=0;exitDy=0;entryX=0;entryY=0.5;entryDx=0;entryDy=0;" parent="UzYm02WXKTJv9H1VEio6-1" source="0bnGsn4zdjwsSH2EL1Oj-25" target="0bnGsn4zdjwsSH2EL1Oj-22" edge="1">
          <mxGeometry relative="1" as="geometry" />
        </mxCell>
        <UserObject label="T1" id="0bnGsn4zdjwsSH2EL1Oj-25">
          <mxCell style="ellipse;whiteSpace=wrap;html=1;aspect=fixed;fillColor=#dae8fc;strokeColor=#6c8ebf;" parent="UzYm02WXKTJv9H1VEio6-1" vertex="1">
            <mxGeometry x="558" y="220" width="20" height="20" as="geometry" />
          </mxCell>
        </UserObject>
        <UserObject label="" link="data:page/id,Y5B1WkDeQFZ4UK6oZjhO" id="0bnGsn4zdjwsSH2EL1Oj-26">
          <mxCell style="ellipse;whiteSpace=wrap;html=1;aspect=fixed;fillColor=#d5e8d4;strokeColor=#82b366;" parent="UzYm02WXKTJv9H1VEio6-1" vertex="1">
            <mxGeometry x="655" y="100" width="50" height="50" as="geometry" />
          </mxCell>
        </UserObject>
        <UserObject label="" link="data:page/id,Y5B1WkDeQFZ4UK6oZjhO" id="0bnGsn4zdjwsSH2EL1Oj-27">
          <mxCell style="shape=flexArrow;endArrow=classic;html=1;rounded=0;endWidth=4;endSize=4.6;" parent="UzYm02WXKTJv9H1VEio6-1" edge="1">
            <mxGeometry width="50" height="50" relative="1" as="geometry">
              <mxPoint x="666.9200000000001" y="127" as="sourcePoint" />
              <mxPoint x="697.09" y="127" as="targetPoint" />
            </mxGeometry>
          </mxCell>
        </UserObject>
        <UserObject label="" link="data:page/id,M0PFeYh-DXWQnRFdKz0Y" id="0bnGsn4zdjwsSH2EL1Oj-28">
          <mxCell style="ellipse;whiteSpace=wrap;html=1;aspect=fixed;fillColor=#d5e8d4;strokeColor=#82b366;" parent="UzYm02WXKTJv9H1VEio6-1" vertex="1">
            <mxGeometry x="340" y="100" width="50" height="50" as="geometry" />
          </mxCell>
        </UserObject>
        <UserObject label="" link="data:page/id,M0PFeYh-DXWQnRFdKz0Y" id="0bnGsn4zdjwsSH2EL1Oj-29">
          <mxCell style="shape=flexArrow;endArrow=classic;html=1;rounded=0;endWidth=4;endSize=4.6;" parent="UzYm02WXKTJv9H1VEio6-1" edge="1">
            <mxGeometry width="50" height="50" relative="1" as="geometry">
              <mxPoint x="379.09000000000015" y="127" as="sourcePoint" />
              <mxPoint x="348.9200000000002" y="127" as="targetPoint" />
            </mxGeometry>
          </mxCell>
        </UserObject>
        <mxCell id="0bnGsn4zdjwsSH2EL1Oj-30" value="" style="ellipse;whiteSpace=wrap;html=1;aspect=fixed;" parent="UzYm02WXKTJv9H1VEio6-1" vertex="1">
          <mxGeometry x="80" y="230" width="4" height="4" as="geometry" />
        </mxCell>
        <mxCell id="0bnGsn4zdjwsSH2EL1Oj-31" value="" style="ellipse;whiteSpace=wrap;html=1;aspect=fixed;" parent="UzYm02WXKTJv9H1VEio6-1" vertex="1">
          <mxGeometry x="1085" y="230" width="4" height="4" as="geometry" />
        </mxCell>
        <mxCell id="0bnGsn4zdjwsSH2EL1Oj-32" value="$$Ledger$$" style="ellipse;whiteSpace=wrap;html=1;" parent="UzYm02WXKTJv9H1VEio6-1" vertex="1">
          <mxGeometry x="467" y="301" width="120" height="80" as="geometry" />
        </mxCell>
      </root>
    </mxGraphModel>
  </diagram>
  <diagram name="S2" id="jAk-pJTvUaYThIdQby1w">
    <mxGraphModel dx="994" dy="731" grid="1" gridSize="10" guides="1" tooltips="1" connect="1" arrows="1" fold="1" page="1" pageScale="1" pageWidth="1100" pageHeight="850" math="0" shadow="0">
      <root>
        <mxCell id="2BBlpVAuXoGl2Fg2wPqL-0" />
        <mxCell id="2BBlpVAuXoGl2Fg2wPqL-1" parent="2BBlpVAuXoGl2Fg2wPqL-0" />
        <mxCell id="Hwnh6zmIa2eaYbAEzVfw-0" style="edgeStyle=orthogonalEdgeStyle;rounded=0;orthogonalLoop=1;jettySize=auto;html=1;exitX=1;exitY=0.5;exitDx=0;exitDy=0;entryX=0;entryY=0.5;entryDx=0;entryDy=0;fillColor=#fff2cc;strokeColor=#d6b656;" parent="2BBlpVAuXoGl2Fg2wPqL-1" source="Hwnh6zmIa2eaYbAEzVfw-1" target="Hwnh6zmIa2eaYbAEzVfw-3" edge="1">
          <mxGeometry relative="1" as="geometry" />
        </mxCell>
        <mxCell id="Hwnh6zmIa2eaYbAEzVfw-1" value="" style="shape=lineEllipse;perimeter=ellipsePerimeter;whiteSpace=wrap;html=1;backgroundOutline=1;fillColor=#fff2cc;strokeColor=#d6b656;" parent="2BBlpVAuXoGl2Fg2wPqL-1" vertex="1">
          <mxGeometry x="355" y="345" width="80" height="80" as="geometry" />
        </mxCell>
        <mxCell id="Hwnh6zmIa2eaYbAEzVfw-2" value="Nothing" style="text;html=1;strokeColor=#d6b656;fillColor=#fff2cc;align=center;verticalAlign=middle;whiteSpace=wrap;rounded=0;" parent="2BBlpVAuXoGl2Fg2wPqL-1" vertex="1">
          <mxGeometry x="365" y="355" width="60" height="30" as="geometry" />
        </mxCell>
        <mxCell id="Hwnh6zmIa2eaYbAEzVfw-3" value="" style="shape=lineEllipse;perimeter=ellipsePerimeter;whiteSpace=wrap;html=1;backgroundOutline=1;fillColor=#fff2cc;strokeColor=#d6b656;" parent="2BBlpVAuXoGl2Fg2wPqL-1" vertex="1">
          <mxGeometry x="615" y="345" width="80" height="80" as="geometry" />
        </mxCell>
        <mxCell id="Hwnh6zmIa2eaYbAEzVfw-4" value="Created" style="text;html=1;strokeColor=#d6b656;fillColor=#fff2cc;align=center;verticalAlign=middle;whiteSpace=wrap;rounded=0;" parent="2BBlpVAuXoGl2Fg2wPqL-1" vertex="1">
          <mxGeometry x="625" y="355" width="60" height="30" as="geometry" />
        </mxCell>
        <mxCell id="Hwnh6zmIa2eaYbAEzVfw-5" value="Detailed states" style="text;html=1;strokeColor=none;fillColor=none;align=center;verticalAlign=middle;whiteSpace=wrap;rounded=0;fontSize=24;" parent="2BBlpVAuXoGl2Fg2wPqL-1" vertex="1">
          <mxGeometry x="365" y="110" width="320" height="30" as="geometry" />
        </mxCell>
        <mxCell id="Hwnh6zmIa2eaYbAEzVfw-6" style="edgeStyle=orthogonalEdgeStyle;rounded=0;orthogonalLoop=1;jettySize=auto;html=1;exitX=1;exitY=0.5;exitDx=0;exitDy=0;entryX=0;entryY=0.5;entryDx=0;entryDy=0;" parent="2BBlpVAuXoGl2Fg2wPqL-1" source="Hwnh6zmIa2eaYbAEzVfw-7" target="Hwnh6zmIa2eaYbAEzVfw-9" edge="1">
          <mxGeometry relative="1" as="geometry" />
        </mxCell>
        <UserObject label="1" link="data:page/id,3gOTRgeiZwrZgq-XQjOY" id="Hwnh6zmIa2eaYbAEzVfw-7">
          <mxCell style="ellipse;whiteSpace=wrap;html=1;aspect=fixed;fillColor=#d5e8d4;strokeColor=#82b366;" parent="2BBlpVAuXoGl2Fg2wPqL-1" vertex="1">
            <mxGeometry x="360" y="180" width="20" height="20" as="geometry" />
          </mxCell>
        </UserObject>
        <mxCell id="Hwnh6zmIa2eaYbAEzVfw-8" style="edgeStyle=orthogonalEdgeStyle;rounded=0;orthogonalLoop=1;jettySize=auto;html=1;exitX=1;exitY=0.5;exitDx=0;exitDy=0;entryX=0;entryY=0.5;entryDx=0;entryDy=0;" parent="2BBlpVAuXoGl2Fg2wPqL-1" source="Hwnh6zmIa2eaYbAEzVfw-9" target="Hwnh6zmIa2eaYbAEzVfw-12" edge="1">
          <mxGeometry relative="1" as="geometry" />
        </mxCell>
        <UserObject label="2" link="data:page/id,HOMqbK51VmRLCm19x1Nw" id="Hwnh6zmIa2eaYbAEzVfw-9">
          <mxCell style="ellipse;whiteSpace=wrap;html=1;aspect=fixed;fillColor=#d5e8d4;strokeColor=#82b366;" parent="2BBlpVAuXoGl2Fg2wPqL-1" vertex="1">
            <mxGeometry x="420" y="180" width="20" height="20" as="geometry" />
          </mxCell>
        </UserObject>
        <mxCell id="Hwnh6zmIa2eaYbAEzVfw-10" style="edgeStyle=orthogonalEdgeStyle;rounded=0;orthogonalLoop=1;jettySize=auto;html=1;entryX=0;entryY=0.5;entryDx=0;entryDy=0;" parent="2BBlpVAuXoGl2Fg2wPqL-1" source="Hwnh6zmIa2eaYbAEzVfw-12" target="Hwnh6zmIa2eaYbAEzVfw-15" edge="1">
          <mxGeometry relative="1" as="geometry" />
        </mxCell>
        <mxCell id="Hwnh6zmIa2eaYbAEzVfw-11" style="rounded=0;orthogonalLoop=1;jettySize=auto;html=1;exitX=1;exitY=1;exitDx=0;exitDy=0;entryX=0.5;entryY=0;entryDx=0;entryDy=0;" parent="2BBlpVAuXoGl2Fg2wPqL-1" source="Hwnh6zmIa2eaYbAEzVfw-12" target="Hwnh6zmIa2eaYbAEzVfw-20" edge="1">
          <mxGeometry relative="1" as="geometry" />
        </mxCell>
        <UserObject label="3" link="data:page/id,TSF0jeNE_sNj7Yi36eiF" id="Hwnh6zmIa2eaYbAEzVfw-12">
          <mxCell style="ellipse;whiteSpace=wrap;html=1;aspect=fixed;fillColor=#d5e8d4;strokeColor=#82b366;" parent="2BBlpVAuXoGl2Fg2wPqL-1" vertex="1">
            <mxGeometry x="480" y="180" width="20" height="20" as="geometry" />
          </mxCell>
        </UserObject>
        <mxCell id="Hwnh6zmIa2eaYbAEzVfw-13" style="edgeStyle=orthogonalEdgeStyle;rounded=0;orthogonalLoop=1;jettySize=auto;html=1;exitX=1;exitY=0.5;exitDx=0;exitDy=0;entryX=0;entryY=0.5;entryDx=0;entryDy=0;" parent="2BBlpVAuXoGl2Fg2wPqL-1" source="Hwnh6zmIa2eaYbAEzVfw-15" target="Hwnh6zmIa2eaYbAEzVfw-17" edge="1">
          <mxGeometry relative="1" as="geometry" />
        </mxCell>
        <mxCell id="Hwnh6zmIa2eaYbAEzVfw-14" style="rounded=0;orthogonalLoop=1;jettySize=auto;html=1;exitX=1;exitY=1;exitDx=0;exitDy=0;entryX=0.5;entryY=0;entryDx=0;entryDy=0;" parent="2BBlpVAuXoGl2Fg2wPqL-1" source="Hwnh6zmIa2eaYbAEzVfw-15" target="Hwnh6zmIa2eaYbAEzVfw-25" edge="1">
          <mxGeometry relative="1" as="geometry" />
        </mxCell>
        <UserObject label="4" link="data:page/id,M0PFeYh-DXWQnRFdKz0Y" id="Hwnh6zmIa2eaYbAEzVfw-15">
          <mxCell style="ellipse;whiteSpace=wrap;html=1;aspect=fixed;fillColor=#d5e8d4;strokeColor=#82b366;" parent="2BBlpVAuXoGl2Fg2wPqL-1" vertex="1">
            <mxGeometry x="540" y="180" width="20" height="20" as="geometry" />
          </mxCell>
        </UserObject>
        <mxCell id="Hwnh6zmIa2eaYbAEzVfw-16" style="edgeStyle=orthogonalEdgeStyle;rounded=0;orthogonalLoop=1;jettySize=auto;html=1;exitX=1;exitY=0.5;exitDx=0;exitDy=0;entryX=0;entryY=0.5;entryDx=0;entryDy=0;" parent="2BBlpVAuXoGl2Fg2wPqL-1" source="Hwnh6zmIa2eaYbAEzVfw-17" target="Hwnh6zmIa2eaYbAEzVfw-18" edge="1">
          <mxGeometry relative="1" as="geometry" />
        </mxCell>
        <UserObject label="5" link="data:page/id,Y5B1WkDeQFZ4UK6oZjhO" id="Hwnh6zmIa2eaYbAEzVfw-17">
          <mxCell style="ellipse;whiteSpace=wrap;html=1;aspect=fixed;fillColor=#d5e8d4;strokeColor=#82b366;" parent="2BBlpVAuXoGl2Fg2wPqL-1" vertex="1">
            <mxGeometry x="600" y="180" width="20" height="20" as="geometry" />
          </mxCell>
        </UserObject>
        <UserObject label="I" link="data:page/id,S1bIpW9pWT5yYSV2KL6C" id="Hwnh6zmIa2eaYbAEzVfw-18">
          <mxCell style="ellipse;whiteSpace=wrap;html=1;aspect=fixed;fillColor=#d5e8d4;strokeColor=#82b366;" parent="2BBlpVAuXoGl2Fg2wPqL-1" vertex="1">
            <mxGeometry x="660" y="180" width="20" height="20" as="geometry" />
          </mxCell>
        </UserObject>
        <mxCell id="Hwnh6zmIa2eaYbAEzVfw-19" style="rounded=0;orthogonalLoop=1;jettySize=auto;html=1;exitX=1;exitY=0;exitDx=0;exitDy=0;entryX=0;entryY=1;entryDx=0;entryDy=0;" parent="2BBlpVAuXoGl2Fg2wPqL-1" source="Hwnh6zmIa2eaYbAEzVfw-20" target="Hwnh6zmIa2eaYbAEzVfw-15" edge="1">
          <mxGeometry relative="1" as="geometry" />
        </mxCell>
        <UserObject label="S1" link="data:page/id,-JPnqK7kVruUAOabXjC0" id="Hwnh6zmIa2eaYbAEzVfw-20">
          <mxCell style="ellipse;whiteSpace=wrap;html=1;aspect=fixed;fillColor=#d5e8d4;strokeColor=#82b366;" parent="2BBlpVAuXoGl2Fg2wPqL-1" vertex="1">
            <mxGeometry x="510" y="220" width="20" height="20" as="geometry" />
          </mxCell>
        </UserObject>
        <mxCell id="Hwnh6zmIa2eaYbAEzVfw-21" style="edgeStyle=orthogonalEdgeStyle;rounded=0;orthogonalLoop=1;jettySize=auto;html=1;exitX=0.5;exitY=0;exitDx=0;exitDy=0;entryX=0.5;entryY=1;entryDx=0;entryDy=0;" parent="2BBlpVAuXoGl2Fg2wPqL-1" source="Hwnh6zmIa2eaYbAEzVfw-22" target="Hwnh6zmIa2eaYbAEzVfw-17" edge="1">
          <mxGeometry relative="1" as="geometry" />
        </mxCell>
        <UserObject label="S2" id="Hwnh6zmIa2eaYbAEzVfw-22">
          <mxCell style="ellipse;whiteSpace=wrap;html=1;aspect=fixed;fillColor=#dae8fc;strokeColor=#6c8ebf;" parent="2BBlpVAuXoGl2Fg2wPqL-1" vertex="1">
            <mxGeometry x="600" y="220" width="20" height="20" as="geometry" />
          </mxCell>
        </UserObject>
        <mxCell id="Hwnh6zmIa2eaYbAEzVfw-23" style="rounded=0;orthogonalLoop=1;jettySize=auto;html=1;exitX=1;exitY=0;exitDx=0;exitDy=0;entryX=0;entryY=1;entryDx=0;entryDy=0;" parent="2BBlpVAuXoGl2Fg2wPqL-1" source="Hwnh6zmIa2eaYbAEzVfw-25" target="Hwnh6zmIa2eaYbAEzVfw-17" edge="1">
          <mxGeometry relative="1" as="geometry" />
        </mxCell>
        <mxCell id="Hwnh6zmIa2eaYbAEzVfw-24" style="edgeStyle=orthogonalEdgeStyle;rounded=0;orthogonalLoop=1;jettySize=auto;html=1;exitX=1;exitY=0.5;exitDx=0;exitDy=0;entryX=0;entryY=0.5;entryDx=0;entryDy=0;" parent="2BBlpVAuXoGl2Fg2wPqL-1" source="Hwnh6zmIa2eaYbAEzVfw-25" target="Hwnh6zmIa2eaYbAEzVfw-22" edge="1">
          <mxGeometry relative="1" as="geometry" />
        </mxCell>
        <UserObject label="T1" link="data:page/id,C11qGNApYIC4MWzOsMO5" id="Hwnh6zmIa2eaYbAEzVfw-25">
          <mxCell style="ellipse;whiteSpace=wrap;html=1;aspect=fixed;fillColor=#d5e8d4;strokeColor=#82b366;" parent="2BBlpVAuXoGl2Fg2wPqL-1" vertex="1">
            <mxGeometry x="558" y="220" width="20" height="20" as="geometry" />
          </mxCell>
        </UserObject>
        <UserObject label="" link="data:page/id,Y5B1WkDeQFZ4UK6oZjhO" id="Hwnh6zmIa2eaYbAEzVfw-26">
          <mxCell style="ellipse;whiteSpace=wrap;html=1;aspect=fixed;fillColor=#d5e8d4;strokeColor=#82b366;" parent="2BBlpVAuXoGl2Fg2wPqL-1" vertex="1">
            <mxGeometry x="655" y="100" width="50" height="50" as="geometry" />
          </mxCell>
        </UserObject>
        <UserObject label="" link="data:page/id,Y5B1WkDeQFZ4UK6oZjhO" id="Hwnh6zmIa2eaYbAEzVfw-27">
          <mxCell style="shape=flexArrow;endArrow=classic;html=1;rounded=0;endWidth=4;endSize=4.6;" parent="2BBlpVAuXoGl2Fg2wPqL-1" edge="1">
            <mxGeometry width="50" height="50" relative="1" as="geometry">
              <mxPoint x="666.9200000000001" y="127" as="sourcePoint" />
              <mxPoint x="697.09" y="127" as="targetPoint" />
            </mxGeometry>
          </mxCell>
        </UserObject>
        <UserObject label="" link="data:page/id,C11qGNApYIC4MWzOsMO5" id="Hwnh6zmIa2eaYbAEzVfw-28">
          <mxCell style="ellipse;whiteSpace=wrap;html=1;aspect=fixed;fillColor=#d5e8d4;strokeColor=#82b366;" parent="2BBlpVAuXoGl2Fg2wPqL-1" vertex="1">
            <mxGeometry x="340" y="100" width="50" height="50" as="geometry" />
          </mxCell>
        </UserObject>
        <UserObject label="" link="data:page/id,C11qGNApYIC4MWzOsMO5" id="Hwnh6zmIa2eaYbAEzVfw-29">
          <mxCell style="shape=flexArrow;endArrow=classic;html=1;rounded=0;endWidth=4;endSize=4.6;" parent="2BBlpVAuXoGl2Fg2wPqL-1" edge="1">
            <mxGeometry width="50" height="50" relative="1" as="geometry">
              <mxPoint x="379.09000000000015" y="127" as="sourcePoint" />
              <mxPoint x="348.9200000000002" y="127" as="targetPoint" />
            </mxGeometry>
          </mxCell>
        </UserObject>
        <mxCell id="FCW_NGd6FYBlib9Gd7m1-0" value="" style="ellipse;whiteSpace=wrap;html=1;aspect=fixed;" parent="2BBlpVAuXoGl2Fg2wPqL-1" vertex="1">
          <mxGeometry x="80" y="230" width="4" height="4" as="geometry" />
        </mxCell>
        <mxCell id="x4mQBWtL_1grkljkOqMp-0" value="" style="ellipse;whiteSpace=wrap;html=1;aspect=fixed;" parent="2BBlpVAuXoGl2Fg2wPqL-1" vertex="1">
          <mxGeometry x="1085" y="230" width="4" height="4" as="geometry" />
        </mxCell>
      </root>
    </mxGraphModel>
  </diagram>
  <diagram name="5" id="Y5B1WkDeQFZ4UK6oZjhO">
    <mxGraphModel dx="994" dy="731" grid="1" gridSize="10" guides="1" tooltips="1" connect="1" arrows="1" fold="1" page="1" pageScale="1" pageWidth="1100" pageHeight="850" math="0" shadow="0">
      <root>
        <mxCell id="fy_dNXHLGfyHVXKMg_fV-0" />
        <mxCell id="fy_dNXHLGfyHVXKMg_fV-1" parent="fy_dNXHLGfyHVXKMg_fV-0" />
        <mxCell id="zYUiZyhM6Lddt9NIS7_L-1" value="Details" style="text;html=1;strokeColor=none;fillColor=none;align=center;verticalAlign=middle;whiteSpace=wrap;rounded=0;fontSize=24;" parent="fy_dNXHLGfyHVXKMg_fV-1" vertex="1">
          <mxGeometry x="365" y="110" width="320" height="30" as="geometry" />
        </mxCell>
        <mxCell id="zYUiZyhM6Lddt9NIS7_L-4" style="edgeStyle=orthogonalEdgeStyle;rounded=0;orthogonalLoop=1;jettySize=auto;html=1;exitX=1;exitY=0.5;exitDx=0;exitDy=0;entryX=0;entryY=0.5;entryDx=0;entryDy=0;" parent="fy_dNXHLGfyHVXKMg_fV-1" source="zYUiZyhM6Lddt9NIS7_L-5" target="zYUiZyhM6Lddt9NIS7_L-7" edge="1">
          <mxGeometry relative="1" as="geometry" />
        </mxCell>
        <UserObject label="1" link="data:page/id,3gOTRgeiZwrZgq-XQjOY" id="zYUiZyhM6Lddt9NIS7_L-5">
          <mxCell style="ellipse;whiteSpace=wrap;html=1;aspect=fixed;fillColor=#d5e8d4;strokeColor=#82b366;" parent="fy_dNXHLGfyHVXKMg_fV-1" vertex="1">
            <mxGeometry x="360" y="180" width="20" height="20" as="geometry" />
          </mxCell>
        </UserObject>
        <mxCell id="zYUiZyhM6Lddt9NIS7_L-6" style="edgeStyle=orthogonalEdgeStyle;rounded=0;orthogonalLoop=1;jettySize=auto;html=1;exitX=1;exitY=0.5;exitDx=0;exitDy=0;entryX=0;entryY=0.5;entryDx=0;entryDy=0;" parent="fy_dNXHLGfyHVXKMg_fV-1" source="zYUiZyhM6Lddt9NIS7_L-7" target="zYUiZyhM6Lddt9NIS7_L-10" edge="1">
          <mxGeometry relative="1" as="geometry" />
        </mxCell>
        <UserObject label="2" link="data:page/id,HOMqbK51VmRLCm19x1Nw" id="zYUiZyhM6Lddt9NIS7_L-7">
          <mxCell style="ellipse;whiteSpace=wrap;html=1;aspect=fixed;fillColor=#d5e8d4;strokeColor=#82b366;" parent="fy_dNXHLGfyHVXKMg_fV-1" vertex="1">
            <mxGeometry x="420" y="180" width="20" height="20" as="geometry" />
          </mxCell>
        </UserObject>
        <mxCell id="zYUiZyhM6Lddt9NIS7_L-8" style="edgeStyle=orthogonalEdgeStyle;rounded=0;orthogonalLoop=1;jettySize=auto;html=1;entryX=0;entryY=0.5;entryDx=0;entryDy=0;" parent="fy_dNXHLGfyHVXKMg_fV-1" source="zYUiZyhM6Lddt9NIS7_L-10" target="zYUiZyhM6Lddt9NIS7_L-13" edge="1">
          <mxGeometry relative="1" as="geometry" />
        </mxCell>
        <mxCell id="zYUiZyhM6Lddt9NIS7_L-9" style="rounded=0;orthogonalLoop=1;jettySize=auto;html=1;exitX=1;exitY=1;exitDx=0;exitDy=0;entryX=0.5;entryY=0;entryDx=0;entryDy=0;" parent="fy_dNXHLGfyHVXKMg_fV-1" source="zYUiZyhM6Lddt9NIS7_L-10" target="zYUiZyhM6Lddt9NIS7_L-18" edge="1">
          <mxGeometry relative="1" as="geometry" />
        </mxCell>
        <UserObject label="3" link="data:page/id,TSF0jeNE_sNj7Yi36eiF" id="zYUiZyhM6Lddt9NIS7_L-10">
          <mxCell style="ellipse;whiteSpace=wrap;html=1;aspect=fixed;fillColor=#d5e8d4;strokeColor=#82b366;" parent="fy_dNXHLGfyHVXKMg_fV-1" vertex="1">
            <mxGeometry x="480" y="180" width="20" height="20" as="geometry" />
          </mxCell>
        </UserObject>
        <mxCell id="zYUiZyhM6Lddt9NIS7_L-11" style="edgeStyle=orthogonalEdgeStyle;rounded=0;orthogonalLoop=1;jettySize=auto;html=1;exitX=1;exitY=0.5;exitDx=0;exitDy=0;entryX=0;entryY=0.5;entryDx=0;entryDy=0;" parent="fy_dNXHLGfyHVXKMg_fV-1" source="zYUiZyhM6Lddt9NIS7_L-13" target="zYUiZyhM6Lddt9NIS7_L-15" edge="1">
          <mxGeometry relative="1" as="geometry" />
        </mxCell>
        <mxCell id="zYUiZyhM6Lddt9NIS7_L-12" style="rounded=0;orthogonalLoop=1;jettySize=auto;html=1;exitX=1;exitY=1;exitDx=0;exitDy=0;entryX=0.5;entryY=0;entryDx=0;entryDy=0;" parent="fy_dNXHLGfyHVXKMg_fV-1" source="zYUiZyhM6Lddt9NIS7_L-13" target="zYUiZyhM6Lddt9NIS7_L-23" edge="1">
          <mxGeometry relative="1" as="geometry" />
        </mxCell>
        <UserObject label="4" link="data:page/id,M0PFeYh-DXWQnRFdKz0Y" id="zYUiZyhM6Lddt9NIS7_L-13">
          <mxCell style="ellipse;whiteSpace=wrap;html=1;aspect=fixed;fillColor=#d5e8d4;strokeColor=#82b366;" parent="fy_dNXHLGfyHVXKMg_fV-1" vertex="1">
            <mxGeometry x="540" y="180" width="20" height="20" as="geometry" />
          </mxCell>
        </UserObject>
        <mxCell id="zYUiZyhM6Lddt9NIS7_L-14" style="edgeStyle=orthogonalEdgeStyle;rounded=0;orthogonalLoop=1;jettySize=auto;html=1;exitX=1;exitY=0.5;exitDx=0;exitDy=0;entryX=0;entryY=0.5;entryDx=0;entryDy=0;" parent="fy_dNXHLGfyHVXKMg_fV-1" source="zYUiZyhM6Lddt9NIS7_L-15" target="zYUiZyhM6Lddt9NIS7_L-16" edge="1">
          <mxGeometry relative="1" as="geometry" />
        </mxCell>
        <UserObject label="5" id="zYUiZyhM6Lddt9NIS7_L-15">
          <mxCell style="ellipse;whiteSpace=wrap;html=1;aspect=fixed;fillColor=#dae8fc;strokeColor=#6c8ebf;" parent="fy_dNXHLGfyHVXKMg_fV-1" vertex="1">
            <mxGeometry x="600" y="180" width="20" height="20" as="geometry" />
          </mxCell>
        </UserObject>
        <UserObject label="I" link="data:page/id,S1bIpW9pWT5yYSV2KL6C" id="zYUiZyhM6Lddt9NIS7_L-16">
          <mxCell style="ellipse;whiteSpace=wrap;html=1;aspect=fixed;fillColor=#d5e8d4;strokeColor=#82b366;" parent="fy_dNXHLGfyHVXKMg_fV-1" vertex="1">
            <mxGeometry x="660" y="180" width="20" height="20" as="geometry" />
          </mxCell>
        </UserObject>
        <mxCell id="zYUiZyhM6Lddt9NIS7_L-17" style="rounded=0;orthogonalLoop=1;jettySize=auto;html=1;exitX=1;exitY=0;exitDx=0;exitDy=0;entryX=0;entryY=1;entryDx=0;entryDy=0;" parent="fy_dNXHLGfyHVXKMg_fV-1" source="zYUiZyhM6Lddt9NIS7_L-18" target="zYUiZyhM6Lddt9NIS7_L-13" edge="1">
          <mxGeometry relative="1" as="geometry" />
        </mxCell>
        <UserObject label="S1" link="data:page/id,-JPnqK7kVruUAOabXjC0" id="zYUiZyhM6Lddt9NIS7_L-18">
          <mxCell style="ellipse;whiteSpace=wrap;html=1;aspect=fixed;fillColor=#d5e8d4;strokeColor=#82b366;" parent="fy_dNXHLGfyHVXKMg_fV-1" vertex="1">
            <mxGeometry x="510" y="220" width="20" height="20" as="geometry" />
          </mxCell>
        </UserObject>
        <mxCell id="zYUiZyhM6Lddt9NIS7_L-19" style="edgeStyle=orthogonalEdgeStyle;rounded=0;orthogonalLoop=1;jettySize=auto;html=1;exitX=0.5;exitY=0;exitDx=0;exitDy=0;entryX=0.5;entryY=1;entryDx=0;entryDy=0;" parent="fy_dNXHLGfyHVXKMg_fV-1" source="zYUiZyhM6Lddt9NIS7_L-20" target="zYUiZyhM6Lddt9NIS7_L-15" edge="1">
          <mxGeometry relative="1" as="geometry" />
        </mxCell>
        <UserObject label="S2" link="data:page/id,jAk-pJTvUaYThIdQby1w" id="zYUiZyhM6Lddt9NIS7_L-20">
          <mxCell style="ellipse;whiteSpace=wrap;html=1;aspect=fixed;fillColor=#d5e8d4;strokeColor=#82b366;" parent="fy_dNXHLGfyHVXKMg_fV-1" vertex="1">
            <mxGeometry x="600" y="220" width="20" height="20" as="geometry" />
          </mxCell>
        </UserObject>
        <mxCell id="zYUiZyhM6Lddt9NIS7_L-21" style="rounded=0;orthogonalLoop=1;jettySize=auto;html=1;exitX=1;exitY=0;exitDx=0;exitDy=0;entryX=0;entryY=1;entryDx=0;entryDy=0;" parent="fy_dNXHLGfyHVXKMg_fV-1" source="zYUiZyhM6Lddt9NIS7_L-23" target="zYUiZyhM6Lddt9NIS7_L-15" edge="1">
          <mxGeometry relative="1" as="geometry" />
        </mxCell>
        <mxCell id="zYUiZyhM6Lddt9NIS7_L-22" style="edgeStyle=orthogonalEdgeStyle;rounded=0;orthogonalLoop=1;jettySize=auto;html=1;exitX=1;exitY=0.5;exitDx=0;exitDy=0;entryX=0;entryY=0.5;entryDx=0;entryDy=0;" parent="fy_dNXHLGfyHVXKMg_fV-1" source="zYUiZyhM6Lddt9NIS7_L-23" target="zYUiZyhM6Lddt9NIS7_L-20" edge="1">
          <mxGeometry relative="1" as="geometry" />
        </mxCell>
        <UserObject label="T1" link="data:page/id,C11qGNApYIC4MWzOsMO5" id="zYUiZyhM6Lddt9NIS7_L-23">
          <mxCell style="ellipse;whiteSpace=wrap;html=1;aspect=fixed;fillColor=#d5e8d4;strokeColor=#82b366;" parent="fy_dNXHLGfyHVXKMg_fV-1" vertex="1">
            <mxGeometry x="558" y="220" width="20" height="20" as="geometry" />
          </mxCell>
        </UserObject>
        <UserObject label="" link="data:page/id,S1bIpW9pWT5yYSV2KL6C" id="zYUiZyhM6Lddt9NIS7_L-24">
          <mxCell style="ellipse;whiteSpace=wrap;html=1;aspect=fixed;fillColor=#d5e8d4;strokeColor=#82b366;" parent="fy_dNXHLGfyHVXKMg_fV-1" vertex="1">
            <mxGeometry x="655" y="100" width="50" height="50" as="geometry" />
          </mxCell>
        </UserObject>
        <UserObject label="" link="data:page/id,S1bIpW9pWT5yYSV2KL6C" id="zYUiZyhM6Lddt9NIS7_L-25">
          <mxCell style="shape=flexArrow;endArrow=classic;html=1;rounded=0;endWidth=4;endSize=4.6;" parent="fy_dNXHLGfyHVXKMg_fV-1" edge="1">
            <mxGeometry width="50" height="50" relative="1" as="geometry">
              <mxPoint x="666.9200000000001" y="127" as="sourcePoint" />
              <mxPoint x="697.09" y="127" as="targetPoint" />
            </mxGeometry>
          </mxCell>
        </UserObject>
        <UserObject label="" link="data:page/id,M0PFeYh-DXWQnRFdKz0Y" id="zYUiZyhM6Lddt9NIS7_L-26">
          <mxCell style="ellipse;whiteSpace=wrap;html=1;aspect=fixed;fillColor=#d5e8d4;strokeColor=#82b366;" parent="fy_dNXHLGfyHVXKMg_fV-1" vertex="1">
            <mxGeometry x="340" y="100" width="50" height="50" as="geometry" />
          </mxCell>
        </UserObject>
        <UserObject label="" link="data:page/id,M0PFeYh-DXWQnRFdKz0Y" id="zYUiZyhM6Lddt9NIS7_L-27">
          <mxCell style="shape=flexArrow;endArrow=classic;html=1;rounded=0;endWidth=4;endSize=4.6;" parent="fy_dNXHLGfyHVXKMg_fV-1" edge="1">
            <mxGeometry width="50" height="50" relative="1" as="geometry">
              <mxPoint x="379.09000000000015" y="127" as="sourcePoint" />
              <mxPoint x="348.9200000000002" y="127" as="targetPoint" />
            </mxGeometry>
          </mxCell>
        </UserObject>
      </root>
    </mxGraphModel>
  </diagram>
  <diagram name="I" id="S1bIpW9pWT5yYSV2KL6C">
    <mxGraphModel dx="994" dy="731" grid="1" gridSize="10" guides="1" tooltips="1" connect="1" arrows="1" fold="1" page="1" pageScale="1" pageWidth="1100" pageHeight="850" math="0" shadow="0">
      <root>
        <mxCell id="o_WU-A70BqZNO9i8mIyR-0" />
        <mxCell id="o_WU-A70BqZNO9i8mIyR-1" parent="o_WU-A70BqZNO9i8mIyR-0" />
        <mxCell id="ofxqhu_4wROG4YphLrhh-0" value="" style="shape=table;startSize=0;container=1;collapsible=0;childLayout=tableLayout;fontSize=16;" parent="o_WU-A70BqZNO9i8mIyR-1" vertex="1">
          <mxGeometry x="80" y="270" width="1010" height="120" as="geometry" />
        </mxCell>
        <mxCell id="ofxqhu_4wROG4YphLrhh-1" value="" style="shape=tableRow;horizontal=0;startSize=0;swimlaneHead=0;swimlaneBody=0;strokeColor=inherit;top=0;left=0;bottom=0;right=0;collapsible=0;dropTarget=0;fillColor=none;points=[[0,0.5],[1,0.5]];portConstraint=eastwest;fontSize=16;" parent="ofxqhu_4wROG4YphLrhh-0" vertex="1">
          <mxGeometry width="1010" height="40" as="geometry" />
        </mxCell>
        <mxCell id="ofxqhu_4wROG4YphLrhh-2" value="&lt;b&gt;N&lt;/b&gt;" style="shape=partialRectangle;html=1;whiteSpace=wrap;connectable=0;strokeColor=inherit;overflow=hidden;fillColor=none;top=0;left=0;bottom=0;right=0;pointerEvents=1;fontSize=16;" parent="ofxqhu_4wROG4YphLrhh-1" vertex="1">
          <mxGeometry width="89" height="40" as="geometry">
            <mxRectangle width="89" height="40" as="alternateBounds" />
          </mxGeometry>
        </mxCell>
        <mxCell id="ofxqhu_4wROG4YphLrhh-3" value="&lt;b&gt;Human description&lt;/b&gt;" style="shape=partialRectangle;html=1;whiteSpace=wrap;connectable=0;strokeColor=inherit;overflow=hidden;fillColor=none;top=0;left=0;bottom=0;right=0;pointerEvents=1;fontSize=16;" parent="ofxqhu_4wROG4YphLrhh-1" vertex="1">
          <mxGeometry x="89" width="287" height="40" as="geometry">
            <mxRectangle width="287" height="40" as="alternateBounds" />
          </mxGeometry>
        </mxCell>
        <mxCell id="ofxqhu_4wROG4YphLrhh-4" value="&lt;b&gt;Formal description&lt;/b&gt;" style="shape=partialRectangle;html=1;whiteSpace=wrap;connectable=0;strokeColor=inherit;overflow=hidden;fillColor=none;top=0;left=0;bottom=0;right=0;pointerEvents=1;fontSize=16;" parent="ofxqhu_4wROG4YphLrhh-1" vertex="1">
          <mxGeometry x="376" width="634" height="40" as="geometry">
            <mxRectangle width="634" height="40" as="alternateBounds" />
          </mxGeometry>
        </mxCell>
        <mxCell id="ofxqhu_4wROG4YphLrhh-5" value="" style="shape=tableRow;horizontal=0;startSize=0;swimlaneHead=0;swimlaneBody=0;strokeColor=inherit;top=0;left=0;bottom=0;right=0;collapsible=0;dropTarget=0;fillColor=none;points=[[0,0.5],[1,0.5]];portConstraint=eastwest;fontSize=16;" parent="ofxqhu_4wROG4YphLrhh-0" vertex="1">
          <mxGeometry y="40" width="1010" height="40" as="geometry" />
        </mxCell>
        <mxCell id="ofxqhu_4wROG4YphLrhh-6" value="" style="shape=partialRectangle;html=1;whiteSpace=wrap;connectable=0;strokeColor=inherit;overflow=hidden;fillColor=none;top=0;left=0;bottom=0;right=0;pointerEvents=1;fontSize=16;" parent="ofxqhu_4wROG4YphLrhh-5" vertex="1">
          <mxGeometry width="89" height="40" as="geometry">
            <mxRectangle width="89" height="40" as="alternateBounds" />
          </mxGeometry>
        </mxCell>
        <mxCell id="ofxqhu_4wROG4YphLrhh-7" value="" style="shape=partialRectangle;html=1;whiteSpace=wrap;connectable=0;strokeColor=inherit;overflow=hidden;fillColor=none;top=0;left=0;bottom=0;right=0;pointerEvents=1;fontSize=16;" parent="ofxqhu_4wROG4YphLrhh-5" vertex="1">
          <mxGeometry x="89" width="287" height="40" as="geometry">
            <mxRectangle width="287" height="40" as="alternateBounds" />
          </mxGeometry>
        </mxCell>
        <mxCell id="ofxqhu_4wROG4YphLrhh-8" value="" style="shape=partialRectangle;html=1;whiteSpace=wrap;connectable=0;strokeColor=inherit;overflow=hidden;fillColor=none;top=0;left=0;bottom=0;right=0;pointerEvents=1;fontSize=16;" parent="ofxqhu_4wROG4YphLrhh-5" vertex="1">
          <mxGeometry x="376" width="634" height="40" as="geometry">
            <mxRectangle width="634" height="40" as="alternateBounds" />
          </mxGeometry>
        </mxCell>
        <mxCell id="ofxqhu_4wROG4YphLrhh-9" value="" style="shape=tableRow;horizontal=0;startSize=0;swimlaneHead=0;swimlaneBody=0;strokeColor=inherit;top=0;left=0;bottom=0;right=0;collapsible=0;dropTarget=0;fillColor=none;points=[[0,0.5],[1,0.5]];portConstraint=eastwest;fontSize=16;" parent="ofxqhu_4wROG4YphLrhh-0" vertex="1">
          <mxGeometry y="80" width="1010" height="40" as="geometry" />
        </mxCell>
        <mxCell id="ofxqhu_4wROG4YphLrhh-10" value="" style="shape=partialRectangle;html=1;whiteSpace=wrap;connectable=0;strokeColor=inherit;overflow=hidden;fillColor=none;top=0;left=0;bottom=0;right=0;pointerEvents=1;fontSize=16;" parent="ofxqhu_4wROG4YphLrhh-9" vertex="1">
          <mxGeometry width="89" height="40" as="geometry">
            <mxRectangle width="89" height="40" as="alternateBounds" />
          </mxGeometry>
        </mxCell>
        <mxCell id="ofxqhu_4wROG4YphLrhh-11" value="" style="shape=partialRectangle;html=1;whiteSpace=wrap;connectable=0;strokeColor=inherit;overflow=hidden;fillColor=none;top=0;left=0;bottom=0;right=0;pointerEvents=1;fontSize=16;" parent="ofxqhu_4wROG4YphLrhh-9" vertex="1">
          <mxGeometry x="89" width="287" height="40" as="geometry">
            <mxRectangle width="287" height="40" as="alternateBounds" />
          </mxGeometry>
        </mxCell>
        <mxCell id="ofxqhu_4wROG4YphLrhh-12" value="" style="shape=partialRectangle;html=1;whiteSpace=wrap;connectable=0;strokeColor=inherit;overflow=hidden;fillColor=none;top=0;left=0;bottom=0;right=0;pointerEvents=1;fontSize=16;" parent="ofxqhu_4wROG4YphLrhh-9" vertex="1">
          <mxGeometry x="376" width="634" height="40" as="geometry">
            <mxRectangle width="634" height="40" as="alternateBounds" />
          </mxGeometry>
        </mxCell>
        <mxCell id="q3CCWFAML5nQKeQgbGGg-0" value="Invariants" style="text;html=1;strokeColor=none;fillColor=none;align=center;verticalAlign=middle;whiteSpace=wrap;rounded=0;fontSize=24;" parent="o_WU-A70BqZNO9i8mIyR-1" vertex="1">
          <mxGeometry x="365" y="110" width="320" height="30" as="geometry" />
        </mxCell>
        <mxCell id="q3CCWFAML5nQKeQgbGGg-1" style="edgeStyle=orthogonalEdgeStyle;rounded=0;orthogonalLoop=1;jettySize=auto;html=1;exitX=1;exitY=0.5;exitDx=0;exitDy=0;entryX=0;entryY=0.5;entryDx=0;entryDy=0;" parent="o_WU-A70BqZNO9i8mIyR-1" source="q3CCWFAML5nQKeQgbGGg-2" target="q3CCWFAML5nQKeQgbGGg-4" edge="1">
          <mxGeometry relative="1" as="geometry" />
        </mxCell>
        <UserObject label="1" link="data:page/id,3gOTRgeiZwrZgq-XQjOY" id="q3CCWFAML5nQKeQgbGGg-2">
          <mxCell style="ellipse;whiteSpace=wrap;html=1;aspect=fixed;fillColor=#d5e8d4;strokeColor=#82b366;" parent="o_WU-A70BqZNO9i8mIyR-1" vertex="1">
            <mxGeometry x="360" y="180" width="20" height="20" as="geometry" />
          </mxCell>
        </UserObject>
        <mxCell id="q3CCWFAML5nQKeQgbGGg-3" style="edgeStyle=orthogonalEdgeStyle;rounded=0;orthogonalLoop=1;jettySize=auto;html=1;exitX=1;exitY=0.5;exitDx=0;exitDy=0;entryX=0;entryY=0.5;entryDx=0;entryDy=0;" parent="o_WU-A70BqZNO9i8mIyR-1" source="q3CCWFAML5nQKeQgbGGg-4" target="q3CCWFAML5nQKeQgbGGg-7" edge="1">
          <mxGeometry relative="1" as="geometry" />
        </mxCell>
        <UserObject label="2" link="data:page/id,HOMqbK51VmRLCm19x1Nw" id="q3CCWFAML5nQKeQgbGGg-4">
          <mxCell style="ellipse;whiteSpace=wrap;html=1;aspect=fixed;fillColor=#d5e8d4;strokeColor=#82b366;" parent="o_WU-A70BqZNO9i8mIyR-1" vertex="1">
            <mxGeometry x="420" y="180" width="20" height="20" as="geometry" />
          </mxCell>
        </UserObject>
        <mxCell id="q3CCWFAML5nQKeQgbGGg-5" style="edgeStyle=orthogonalEdgeStyle;rounded=0;orthogonalLoop=1;jettySize=auto;html=1;entryX=0;entryY=0.5;entryDx=0;entryDy=0;" parent="o_WU-A70BqZNO9i8mIyR-1" source="q3CCWFAML5nQKeQgbGGg-7" target="q3CCWFAML5nQKeQgbGGg-10" edge="1">
          <mxGeometry relative="1" as="geometry" />
        </mxCell>
        <mxCell id="q3CCWFAML5nQKeQgbGGg-6" style="rounded=0;orthogonalLoop=1;jettySize=auto;html=1;exitX=1;exitY=1;exitDx=0;exitDy=0;entryX=0.5;entryY=0;entryDx=0;entryDy=0;" parent="o_WU-A70BqZNO9i8mIyR-1" source="q3CCWFAML5nQKeQgbGGg-7" target="q3CCWFAML5nQKeQgbGGg-15" edge="1">
          <mxGeometry relative="1" as="geometry" />
        </mxCell>
        <UserObject label="3" link="data:page/id,TSF0jeNE_sNj7Yi36eiF" id="q3CCWFAML5nQKeQgbGGg-7">
          <mxCell style="ellipse;whiteSpace=wrap;html=1;aspect=fixed;fillColor=#d5e8d4;strokeColor=#82b366;" parent="o_WU-A70BqZNO9i8mIyR-1" vertex="1">
            <mxGeometry x="480" y="180" width="20" height="20" as="geometry" />
          </mxCell>
        </UserObject>
        <mxCell id="q3CCWFAML5nQKeQgbGGg-8" style="edgeStyle=orthogonalEdgeStyle;rounded=0;orthogonalLoop=1;jettySize=auto;html=1;exitX=1;exitY=0.5;exitDx=0;exitDy=0;entryX=0;entryY=0.5;entryDx=0;entryDy=0;" parent="o_WU-A70BqZNO9i8mIyR-1" source="q3CCWFAML5nQKeQgbGGg-10" target="q3CCWFAML5nQKeQgbGGg-12" edge="1">
          <mxGeometry relative="1" as="geometry" />
        </mxCell>
        <mxCell id="q3CCWFAML5nQKeQgbGGg-9" style="rounded=0;orthogonalLoop=1;jettySize=auto;html=1;exitX=1;exitY=1;exitDx=0;exitDy=0;entryX=0.5;entryY=0;entryDx=0;entryDy=0;" parent="o_WU-A70BqZNO9i8mIyR-1" source="q3CCWFAML5nQKeQgbGGg-10" target="q3CCWFAML5nQKeQgbGGg-20" edge="1">
          <mxGeometry relative="1" as="geometry" />
        </mxCell>
        <UserObject label="4" link="data:page/id,M0PFeYh-DXWQnRFdKz0Y" id="q3CCWFAML5nQKeQgbGGg-10">
          <mxCell style="ellipse;whiteSpace=wrap;html=1;aspect=fixed;fillColor=#d5e8d4;strokeColor=#82b366;" parent="o_WU-A70BqZNO9i8mIyR-1" vertex="1">
            <mxGeometry x="540" y="180" width="20" height="20" as="geometry" />
          </mxCell>
        </UserObject>
        <mxCell id="q3CCWFAML5nQKeQgbGGg-11" style="edgeStyle=orthogonalEdgeStyle;rounded=0;orthogonalLoop=1;jettySize=auto;html=1;exitX=1;exitY=0.5;exitDx=0;exitDy=0;entryX=0;entryY=0.5;entryDx=0;entryDy=0;" parent="o_WU-A70BqZNO9i8mIyR-1" source="q3CCWFAML5nQKeQgbGGg-12" target="q3CCWFAML5nQKeQgbGGg-13" edge="1">
          <mxGeometry relative="1" as="geometry" />
        </mxCell>
        <UserObject label="5" link="data:page/id,Y5B1WkDeQFZ4UK6oZjhO" id="q3CCWFAML5nQKeQgbGGg-12">
          <mxCell style="ellipse;whiteSpace=wrap;html=1;aspect=fixed;fillColor=#d5e8d4;strokeColor=#82b366;" parent="o_WU-A70BqZNO9i8mIyR-1" vertex="1">
            <mxGeometry x="600" y="180" width="20" height="20" as="geometry" />
          </mxCell>
        </UserObject>
        <UserObject label="I" id="q3CCWFAML5nQKeQgbGGg-13">
          <mxCell style="ellipse;whiteSpace=wrap;html=1;aspect=fixed;fillColor=#dae8fc;strokeColor=#6c8ebf;" parent="o_WU-A70BqZNO9i8mIyR-1" vertex="1">
            <mxGeometry x="660" y="180" width="20" height="20" as="geometry" />
          </mxCell>
        </UserObject>
        <mxCell id="q3CCWFAML5nQKeQgbGGg-14" style="rounded=0;orthogonalLoop=1;jettySize=auto;html=1;exitX=1;exitY=0;exitDx=0;exitDy=0;entryX=0;entryY=1;entryDx=0;entryDy=0;" parent="o_WU-A70BqZNO9i8mIyR-1" source="q3CCWFAML5nQKeQgbGGg-15" target="q3CCWFAML5nQKeQgbGGg-10" edge="1">
          <mxGeometry relative="1" as="geometry" />
        </mxCell>
        <UserObject label="S1" link="data:page/id,-JPnqK7kVruUAOabXjC0" id="q3CCWFAML5nQKeQgbGGg-15">
          <mxCell style="ellipse;whiteSpace=wrap;html=1;aspect=fixed;fillColor=#d5e8d4;strokeColor=#82b366;" parent="o_WU-A70BqZNO9i8mIyR-1" vertex="1">
            <mxGeometry x="510" y="220" width="20" height="20" as="geometry" />
          </mxCell>
        </UserObject>
        <mxCell id="q3CCWFAML5nQKeQgbGGg-16" style="edgeStyle=orthogonalEdgeStyle;rounded=0;orthogonalLoop=1;jettySize=auto;html=1;exitX=0.5;exitY=0;exitDx=0;exitDy=0;entryX=0.5;entryY=1;entryDx=0;entryDy=0;" parent="o_WU-A70BqZNO9i8mIyR-1" source="q3CCWFAML5nQKeQgbGGg-17" target="q3CCWFAML5nQKeQgbGGg-12" edge="1">
          <mxGeometry relative="1" as="geometry" />
        </mxCell>
        <UserObject label="S2" link="data:page/id,jAk-pJTvUaYThIdQby1w" id="q3CCWFAML5nQKeQgbGGg-17">
          <mxCell style="ellipse;whiteSpace=wrap;html=1;aspect=fixed;fillColor=#d5e8d4;strokeColor=#82b366;" parent="o_WU-A70BqZNO9i8mIyR-1" vertex="1">
            <mxGeometry x="600" y="220" width="20" height="20" as="geometry" />
          </mxCell>
        </UserObject>
        <mxCell id="q3CCWFAML5nQKeQgbGGg-18" style="rounded=0;orthogonalLoop=1;jettySize=auto;html=1;exitX=1;exitY=0;exitDx=0;exitDy=0;entryX=0;entryY=1;entryDx=0;entryDy=0;" parent="o_WU-A70BqZNO9i8mIyR-1" source="q3CCWFAML5nQKeQgbGGg-20" target="q3CCWFAML5nQKeQgbGGg-12" edge="1">
          <mxGeometry relative="1" as="geometry" />
        </mxCell>
        <mxCell id="q3CCWFAML5nQKeQgbGGg-19" style="edgeStyle=orthogonalEdgeStyle;rounded=0;orthogonalLoop=1;jettySize=auto;html=1;exitX=1;exitY=0.5;exitDx=0;exitDy=0;entryX=0;entryY=0.5;entryDx=0;entryDy=0;" parent="o_WU-A70BqZNO9i8mIyR-1" source="q3CCWFAML5nQKeQgbGGg-20" target="q3CCWFAML5nQKeQgbGGg-17" edge="1">
          <mxGeometry relative="1" as="geometry" />
        </mxCell>
        <UserObject label="T1" link="data:page/id,C11qGNApYIC4MWzOsMO5" id="q3CCWFAML5nQKeQgbGGg-20">
          <mxCell style="ellipse;whiteSpace=wrap;html=1;aspect=fixed;fillColor=#d5e8d4;strokeColor=#82b366;" parent="o_WU-A70BqZNO9i8mIyR-1" vertex="1">
            <mxGeometry x="558" y="220" width="20" height="20" as="geometry" />
          </mxCell>
        </UserObject>
        <UserObject label="" id="q3CCWFAML5nQKeQgbGGg-21">
          <mxCell style="ellipse;whiteSpace=wrap;html=1;aspect=fixed;fillColor=#f5f5f5;strokeColor=#666666;fontColor=#333333;" parent="o_WU-A70BqZNO9i8mIyR-1" vertex="1">
            <mxGeometry x="655" y="100" width="50" height="50" as="geometry" />
          </mxCell>
        </UserObject>
        <UserObject label="" id="q3CCWFAML5nQKeQgbGGg-22">
          <mxCell style="shape=flexArrow;endArrow=classic;html=1;rounded=0;endWidth=4;endSize=4.6;" parent="o_WU-A70BqZNO9i8mIyR-1" edge="1">
            <mxGeometry width="50" height="50" relative="1" as="geometry">
              <mxPoint x="666.9200000000001" y="127" as="sourcePoint" />
              <mxPoint x="697.09" y="127" as="targetPoint" />
            </mxGeometry>
          </mxCell>
        </UserObject>
        <UserObject label="" link="data:page/id,Y5B1WkDeQFZ4UK6oZjhO" id="q3CCWFAML5nQKeQgbGGg-23">
          <mxCell style="ellipse;whiteSpace=wrap;html=1;aspect=fixed;fillColor=#d5e8d4;strokeColor=#82b366;" parent="o_WU-A70BqZNO9i8mIyR-1" vertex="1">
            <mxGeometry x="340" y="100" width="50" height="50" as="geometry" />
          </mxCell>
        </UserObject>
        <UserObject label="" link="data:page/id,Y5B1WkDeQFZ4UK6oZjhO" id="q3CCWFAML5nQKeQgbGGg-24">
          <mxCell style="shape=flexArrow;endArrow=classic;html=1;rounded=0;endWidth=4;endSize=4.6;" parent="o_WU-A70BqZNO9i8mIyR-1" edge="1">
            <mxGeometry width="50" height="50" relative="1" as="geometry">
              <mxPoint x="379.09000000000015" y="127" as="sourcePoint" />
              <mxPoint x="348.9200000000002" y="127" as="targetPoint" />
            </mxGeometry>
          </mxCell>
        </UserObject>
      </root>
    </mxGraphModel>
  </diagram>
</mxfile>
